<?xml version="1.0" encoding="UTF-8" standalone="no"?>
<!-- Created with Inkscape (http://www.inkscape.org/) -->

<svg
   width="13.22914mm"
   height="11.232085mm"
   viewBox="0 0 13.22914 11.232085"
   version="1.1"
   id="svg15847"
   inkscape:version="1.1.2 (b8e25be833, 2022-02-05)"
   sodipodi:docname="blue_logo.svg"
   xmlns:inkscape="http://www.inkscape.org/namespaces/inkscape"
   xmlns:sodipodi="http://sodipodi.sourceforge.net/DTD/sodipodi-0.dtd"
   xmlns="http://www.w3.org/2000/svg"
   xmlns:svg="http://www.w3.org/2000/svg">
  <sodipodi:namedview
     id="namedview15849"
     pagecolor="#ffffff"
     bordercolor="#111111"
     borderopacity="1"
     inkscape:pageshadow="0"
     inkscape:pageopacity="0"
     inkscape:pagecheckerboard="1"
     inkscape:document-units="mm"
     showgrid="false"
     inkscape:zoom="23.033894"
     inkscape:cx="21.077634"
     inkscape:cy="26.200519"
     inkscape:window-width="1920"
     inkscape:window-height="1001"
     inkscape:window-x="-9"
     inkscape:window-y="-9"
     inkscape:window-maximized="1"
     inkscape:current-layer="layer1"
     fit-margin-top="0"
     fit-margin-left="0"
     fit-margin-right="0"
     fit-margin-bottom="0" />
  <defs
     id="defs15844" />
  <g
     inkscape:label="Warstwa 1"
     inkscape:groupmode="layer"
     id="layer1"
     transform="translate(-46.893491,-127.48272)">
    <path
       style="fill:#ecffec;fill-opacity:1;stroke:#000000;stroke-width:0.0310033px;stroke-linecap:butt;stroke-linejoin:miter;stroke-opacity:1"
       d="m 52.139506,128.43286 3.241081,0.54376 c 0,0 0.107689,0.12998 0.103885,0.30892 -0.0038,0.1789 0.02663,0.3959 -0.05711,0.51768 -0.08375,0.12188 -0.07614,0.13331 -0.392118,0.0761 -0.315973,-0.0571 -2.584927,-0.51012 -2.584927,-0.51012 l -0.357853,-0.0609 z"
       id="path16089" />
    <path
       style="fill:#80e5ff;fill-opacity:1;stroke:#000000;stroke-width:0.0310033px;stroke-linecap:butt;stroke-linejoin:miter;stroke-opacity:1"
       d="m 52.092465,129.30834 -0.03899,0.039 c -0.03902,0.0391 -0.01086,0.0949 -0.01086,0.0949 l 1.884349,0.3473 c 0,0 0.535696,0.11843 1.036397,0.21532 0.500696,0.097 0.43609,0.0646 0.43609,0.0646 l 0.707981,-0.27185 c 0,0 1.087535,-0.43074 1.47248,-0.56537 0.384944,-0.13455 0.3338,-0.23419 0.38764,-0.58677 0.05384,-0.3527 -0.231506,-0.5815 -0.231506,-0.5815 l -0.939484,-0.18037 -2.09432,-0.38495 -1.458147,0.44674 c 0,0 -1.052628,0.30838 -1.115443,0.32357 -0.06282,0.015 -0.09327,0.017 -0.104691,0.0762 -0.01144,0.059 0.115563,0.0876 0.115563,0.0876 l 3.241085,0.54377 c 0,0 0.10633,0.12526 0.109026,0.32709 0.0026,0.20191 -0.0067,0.45631 -0.07269,0.52493 -0.06595,0.0687 -0.08614,0.11445 -0.263809,0.0794 -0.07041,-0.0137 -0.565713,-0.11091 -1.138079,-0.22303 -0.87188,-0.17088 -1.922571,-0.37658 -1.92257,-0.37658 z"
       id="path16091"
       sodipodi:nodetypes="csccsccssccccssccscssc" />
    <path
       style="fill:#ecffec;fill-opacity:1;stroke:#000000;stroke-width:0.0310033px;stroke-linecap:butt;stroke-linejoin:miter;stroke-opacity:1"
       d="m 54.639325,130.18398 -0.03808,0.97078 -2.367931,-0.90607 c 0,0 -0.07995,-0.0685 -0.08375,-0.24744 -0.0038,-0.17895 -0.0076,-0.25507 0.03046,-0.35789 0.01322,-0.0355 0.0396,-0.0683 0.06832,-0.0958 0.05409,-0.0517 0.05488,-0.0553 0.05488,-0.0553 l 0.329337,0.0553 z"
       id="path17154"
       sodipodi:nodetypes="cccsssccc" />
    <path
       style="fill:#daeddb;fill-opacity:1;stroke:#000000;stroke-width:0.0310033px;stroke-linecap:butt;stroke-linejoin:miter;stroke-opacity:1"
       d="m 54.639325,130.18398 3.243532,-0.55203 -0.01145,0.87181 -3.270181,0.651 z"
       id="path17156" />
    <path
       style="fill:#ff80b2;fill-opacity:1;stroke:#000000;stroke-width:0.0310033px;stroke-linecap:butt;stroke-linejoin:miter;stroke-opacity:1"
       d="m 57.310701,129.34005 0.659523,0.19381 c 0,0 0.03255,0.0696 -0.08737,0.0981 -0.119909,0.0283 -2.307104,0.39453 -2.307104,0.39453 z"
       id="path17158" />
    <path
       style="fill:#ff80b2;fill-opacity:1;stroke:#000000;stroke-width:0.0310033px;stroke-linecap:butt;stroke-linejoin:miter;stroke-opacity:1"
       d="m 54.639325,130.18398 0.668579,-0.11445 -2.677123,-0.51815 z"
       id="path17160" />
    <path
       style="fill:#ff80b2;fill-opacity:1;stroke:#000000;stroke-width:0.0310033px;stroke-linecap:butt;stroke-linejoin:miter;stroke-opacity:1"
       d="m 54.601257,131.15476 -2.367933,-0.90607 c 0,0 -0.09382,-0.0701 -0.0844,-0.30564 0.0094,-0.23554 0.0053,-0.26161 0.0511,-0.34154 0.04569,-0.0799 0.08323,-0.10261 0.08323,-0.10261 l -0.179351,-0.0366 c 0,0 -0.06853,0.0241 -0.07043,0.24078 -0.0019,0.21697 -0.0046,0.40166 -0.0046,0.40166 0,0 0.02281,0.16463 0.198908,0.23977 0.176075,0.0752 2.375548,0.94132 2.375548,0.94132 l 3.361544,-0.64528 c 0,0 0.04375,-0.0387 -0.02476,-0.0875 l -0.06853,-0.0498 z"
       id="path17162"
       sodipodi:nodetypes="ccssccscsccscc" />
    <path
       style="fill:#ddff55;fill-opacity:1;stroke:#000000;stroke-width:0.0310033px;stroke-linecap:butt;stroke-linejoin:miter;stroke-opacity:1"
       d="m 57.810053,130.67124 c 0,0 0.10768,0.0277 0.0848,0.28397 -0.02288,0.25575 0.05115,0.44682 -0.169594,0.52897 -0.220734,0.0821 -2.37697,0.93005 -2.37697,0.93005 l -0.228815,-0.0109 -3.164057,-0.62436 c 0,0 -0.06088,-0.0526 -8.95e-4,-0.10649 0.05922,-0.0538 0.07672,-0.0457 0.07672,-0.0457 l 0.73355,0.13055 2.505343,0.48996 c 0,0 0.144669,-0.1085 0.138956,-0.40547 -0.0057,-0.29691 -0.01525,-0.53676 -0.194154,-0.57295 -0.178929,-0.0363 -0.262683,-0.04 -0.262683,-0.04 z"
       id="path17277" />
    <path
       style="fill:#ddff55;fill-opacity:1;stroke:#000000;stroke-width:0.0310033px;stroke-linecap:butt;stroke-linejoin:miter;stroke-opacity:1"
       d="m 52.554065,130.47333 -0.597612,0.14001 c 0,0 -0.07537,0.0592 -0.0053,0.0969 0.06999,0.0379 0.772583,0.13728 0.772583,0.13728 l 0.952942,0.15882 0.386293,0.0632 z"
       id="path17279" />
    <path
       style="fill:#ecffec;fill-opacity:1;stroke:#000000;stroke-width:0.0310033px;stroke-linecap:butt;stroke-linejoin:miter;stroke-opacity:1"
       d="m 52.031556,130.73978 -5.12e-4,0.88709 3.238895,0.62048 c 0,0 0.146206,-0.10234 0.140825,-0.36075 -0.0053,-0.25838 -0.02959,-0.41994 -0.02959,-0.41994 0,0 -0.02285,-0.13593 -0.107676,-0.17095 -0.08479,-0.035 -0.321419,-0.0667 -0.321419,-0.0667 l -0.348336,0.0571 -0.54027,-0.21653 z"
       id="path17281" />
    <path
       style="fill:#5599ff;fill-opacity:1;stroke:#000000;stroke-width:0.0310033px;stroke-linecap:butt;stroke-linejoin:miter;stroke-opacity:1"
       d="m 46.911777,132.78841 c 0,0 -0.01615,0.40917 0.312264,0.5653 0.328415,0.15611 0.737588,0.32299 1.135997,0.35533 0.398405,0.0321 0.597607,-0.0157 0.64606,0.0484 0.04847,0.0647 0.253042,0.58689 0.253042,0.58689 0,0 0.446861,0.95291 0.678364,1.23827 0.231508,0.28534 0.441482,0.47648 0.441482,0.47648 0,0 -0.199206,-0.3957 -0.193821,-0.65414 0.0053,-0.25848 0.04039,-0.68645 0.08614,-0.91258 0.04577,-0.22609 0.304189,-0.91522 0.304189,-0.91522 0,0 -0.03769,-0.11041 -0.05653,-0.50878 -0.01881,-0.39845 -0.05384,-0.95296 -0.201888,-1.21135 -0.148061,-0.25842 -0.382258,-0.63804 -0.627224,-0.73494 -0.244966,-0.0969 -0.643372,-0.18034 -0.985246,-0.0969 -0.341874,0.0834 -0.672983,0.19108 -0.923332,0.38492 -0.250349,0.19379 -0.514159,0.40379 -0.651446,0.66488 -0.137291,0.26115 -0.223432,0.37423 -0.220739,0.54378 0.0026,0.16961 0.0026,0.16961 0.0026,0.16961 z"
       id="path17283" />
    <path
       style="fill:#5599ff;fill-opacity:1;stroke:#000000;stroke-width:0.0310033px;stroke-linecap:butt;stroke-linejoin:miter;stroke-opacity:1"
       d="m 51.194027,136.6101 c 0,0 -0.125634,0.27791 -0.184641,0.56728 -0.05901,0.2893 -0.100885,0.62814 -0.05901,0.82419 0.04188,0.19604 0.08756,0.42068 0.26078,0.53676 0.173212,0.11614 0.325494,0.13897 0.799462,0.14276 0.473963,0.005 0.546298,-0.008 0.649084,-0.0761 0.102786,-0.0685 0.237935,-0.19222 0.28362,-0.31407 0.04567,-0.12178 0.100887,-0.48921 0.102785,-0.79185 0.0019,-0.30266 -0.0019,-0.62812 -0.0019,-0.62812 0,0 -0.519758,0.02 -1.090447,-0.0877 -0.570703,-0.10768 -0.759751,-0.17313 -0.759751,-0.17313 z"
       id="path17285" />
    <path
       style="fill:#5599ff;fill-opacity:1;stroke:#000000;stroke-width:0.0310033px;stroke-linecap:butt;stroke-linejoin:miter;stroke-opacity:1"
       d="m 56.185474,136.829 0.01088,1.17066 c 0,0 0.133243,0.53296 0.327399,0.59768 0.194154,0.0648 0.609112,0.12182 0.955546,0.0914 0.346436,-0.0301 0.60531,-0.16367 0.673832,-0.32742 0.06853,-0.16368 0.148472,-0.57096 0.133246,-0.74993 -0.01518,-0.17894 -0.04948,-0.48731 -0.156085,-0.76903 -0.106597,-0.28169 -0.156086,-0.37691 -0.156086,-0.37691 0,0 -0.118016,0.14091 -0.597693,0.22466 -0.47968,0.0837 -0.799463,0.12942 -1.191059,0.13892 z"
       id="path17287" />
    <path
       style="fill:#5599ff;fill-opacity:1;stroke:#000000;stroke-width:0.0310033px;stroke-linecap:butt;stroke-linejoin:miter;stroke-opacity:1"
       d="m 58.629023,134.90836 0.02853,0.52353 c 0,0 -0.0038,0.16939 -0.04759,0.335 -0.04356,0.16463 -0.04188,0.15796 -0.04188,0.15796 0,0 0.266488,-0.017 0.567239,0.0609 0.300749,0.078 0.55962,0.18087 0.72713,0.15609 0.167504,-0.0253 0.218902,-0.0253 0.237937,-0.11231 0.01902,-0.0876 -0.0057,-0.20938 -0.0514,-0.27413 -0.04568,-0.0647 -0.182735,-0.26074 -0.315975,-0.36353 -0.13325,-0.10278 -0.273212,-0.20444 -0.407354,-0.29699 -0.14864,-0.10245 -0.241737,-0.15985 -0.432086,-0.18269 -0.19035,-0.0229 -0.264584,-0.005 -0.264584,-0.005 z"
       id="path17289"
       sodipodi:nodetypes="ccscssssssscc" />
    <path
       style="fill:#3576d4;fill-opacity:1;stroke:#000000;stroke-width:0.0310033px;stroke-linecap:butt;stroke-linejoin:miter;stroke-opacity:1"
       d="m 50.575495,133.57717 c 0,0 0.260675,-0.61411 0.633756,-1.03291 0.37308,-0.41875 0.498713,-0.5329 0.517746,-0.5406 0.01902,-0.008 0.228418,-0.2246 0.228418,-0.2246 l 3.164057,0.6244 0.228815,0.0109 1.557279,-0.60972 c 0,0 0.59088,0.45088 0.860073,0.87079 0.26919,0.41998 0.613757,0.9206 0.716053,1.46985 0.10229,0.54911 0.147331,0.76322 0.147331,0.76322 l 0.02853,0.52352 -0.08946,0.49297 c 0,0 -0.07834,0.18268 -0.212941,0.28497 -0.134597,0.10233 -0.146672,0.1589 -0.263807,0.20728 -0.117136,0.0484 -0.117136,0.0484 -0.117136,0.0484 0,0 -0.138601,0.11323 -0.294731,0.15229 -0.15613,0.039 -0.561267,0.12109 -0.702595,0.13991 -0.141325,0.0187 -0.546463,0.074 -0.668943,0.0727 -0.122482,-0.001 -2.346273,0.035 -2.346273,0.035 l -0.917478,0.005 c 0,0 -0.479679,0.0148 -0.801366,-0.04 -0.32169,-0.0552 -0.879407,-0.15607 -1.048817,-0.22082 -0.16941,-0.0646 -0.513545,-0.19292 -0.642755,-0.34638 -0.129215,-0.15345 -0.172286,-0.20461 -0.172286,-0.20461 0,0 -0.09422,-0.19385 -0.126518,-0.30418 -0.0323,-0.11034 -0.06865,-0.23151 -0.06596,-0.34185 0.0026,-0.11042 0.03499,-0.5748 0.04712,-0.67434 0.01209,-0.0996 0.06057,-0.34327 0.11306,-0.50476 0.0525,-0.16149 0.228817,-0.6568 0.228817,-0.6568 z"
       id="path17917" />
    <path
       style="fill:#5599ff;fill-opacity:1;stroke:#000000;stroke-width:0.0310033px;stroke-linecap:butt;stroke-linejoin:miter;stroke-opacity:1"
       d="m 52.770106,135.30813 c 0,0 -0.03808,-0.41496 0.06853,-1.05833 0.106594,-0.64338 0.167507,-1.08879 0.216997,-1.32482 0.04948,-0.23605 0.102789,-0.59005 -0.148471,-0.60156 -0.25126,-0.0117 -0.58627,-0.0304 -0.875601,0.20179 -0.28933,0.23229 -0.601503,0.47208 -0.788042,0.87942 -0.18654,0.40735 -0.380698,1.02028 -0.384504,1.37433 -0.0038,0.35406 0.01902,0.61672 0.270294,0.78048 0.25126,0.16366 0.312173,0.17123 0.84134,0.18267 0.529167,0.0121 0.510135,0.0229 0.510135,0.0229 0,0 0.205577,0.0189 0.251259,-0.2208 0.04569,-0.23986 0.03807,-0.23604 0.03807,-0.23604 z"
       id="path17919" />
    <path
       style="fill:#5599ff;fill-opacity:1;stroke:#000000;stroke-width:0.0310033px;stroke-linecap:butt;stroke-linejoin:miter;stroke-opacity:1"
       d="m 53.938843,136.08475 c 0,0 0.529168,0.12942 0.856564,0.0304 0.327404,-0.0989 0.540592,-0.21319 0.647186,-0.49111 0.106597,-0.27787 0.158731,-0.56099 0.134508,-0.98631 -0.02423,-0.42533 -0.09691,-1.25178 -0.207283,-1.57751 -0.110368,-0.32568 -0.250346,-0.65679 -0.250346,-0.65679 l -1.24502,-0.24227 c 0,0 -0.249001,0.35263 -0.340527,0.71336 -0.09152,0.36068 -0.172285,0.72948 -0.21266,0.98795 -0.04038,0.25844 -0.131907,0.67024 -0.0673,1.07942 0.06461,0.40919 0.06191,0.65148 0.250354,0.85067 0.188432,0.1992 0.434526,0.29215 0.434526,0.29215 z"
       id="path17921" />
    <path
       style="fill:#5599ff;fill-opacity:1;stroke:#000000;stroke-width:0.0310033px;stroke-linecap:butt;stroke-linejoin:miter;stroke-opacity:1"
       d="m 56.394334,132.31584 c 0,0 0.40354,0.0229 0.63196,0.25513 0.228412,0.2322 0.430184,0.42632 0.571041,0.79181 0.140858,0.36548 0.31217,0.71191 0.361663,1.16878 0.04948,0.45683 0.133241,0.77274 -0.118016,0.94789 -0.251259,0.17507 -0.308365,0.23223 -0.719515,0.27027 -0.411155,0.0387 -0.723324,0.0304 -0.723324,0.0304 0,0 -0.121824,0.0189 -0.22461,-0.21319 -0.102789,-0.23224 -0.09137,-0.36547 -0.09518,-0.76519 -0.0038,-0.39976 -0.03432,-0.85276 -0.07233,-1.16113 -0.03807,-0.30838 -0.114208,-0.71571 -0.07233,-0.92133 0.04188,-0.20554 0.08375,-0.31214 0.182735,-0.36161 0.09898,-0.0498 0.277907,-0.0419 0.277907,-0.0419 z"
       id="path17923" />
    <path
       style="fill:#2ad4ff;fill-opacity:1;stroke:#000000;stroke-width:0.0310033px;stroke-linecap:butt;stroke-linejoin:miter;stroke-opacity:1"
       d="m 55.499032,128.89588 c 0,0 0.156132,0.34994 0.134597,0.57603 -0.02685,0.28213 -0.09152,0.39844 -0.09152,0.39844 l 0.872183,-0.30147 c 0,0 0.09153,-0.16153 0.06461,-0.40921 -0.0269,-0.24762 -0.145364,-0.51684 -0.145364,-0.51684 z"
       id="path17925"
       sodipodi:nodetypes="csccscc" />
    <path
       style="fill:#d7d243;fill-opacity:1;stroke:#000000;stroke-width:0.0310033px;stroke-linecap:butt;stroke-linejoin:miter;stroke-opacity:1"
       d="m 55.423657,131.24325 0.807584,-0.25307 c 0,0 0.136055,0.14287 0.161513,0.48458 0.02698,0.36228 -0.113059,0.46836 -0.113059,0.46836 l -0.848692,0.29818 c 0,0 0.0989,-0.23749 0.13133,-0.37732 0.01764,-0.0762 -0.04241,-0.38326 -0.107679,-0.49537 -0.05576,-0.0958 -0.03099,-0.12536 -0.03099,-0.12536 z"
       id="path17927"
       sodipodi:nodetypes="ccsccssc" />
    <circle
       style="fill:#111012;fill-opacity:1;stroke:#000000;stroke-width:0.0310033"
       id="path18850"
       cx="48.747665"
       cy="132.08846"
       r="0.37956202" />
    <path
       style="fill:#2aff2a;fill-opacity:1;stroke:#000000;stroke-width:0.0310033px;stroke-linecap:butt;stroke-linejoin:miter;stroke-opacity:1"
       d="m 51.557518,136.70259 c 0.205594,0.0432 0.442596,0.0861 0.627565,0.11814 -0.07535,-0.0104 -0.152815,-0.0228 -0.231309,-0.0377 -0.161519,-0.0305 -0.291515,-0.0574 -0.396256,-0.0806 z"
       id="path19961" />
    <path
       style="fill:#2aff2a;fill-opacity:1;stroke:#000000;stroke-width:0.0310033px;stroke-linecap:butt;stroke-linejoin:miter;stroke-opacity:1"
       d="m 57.675785,136.61851 c -0.07914,0.0259 -0.177486,0.0505 -0.299248,0.0716 -0.08221,0.0138 -0.159445,0.0271 -0.233426,0.0396 0.178163,-0.0329 0.418082,-0.0828 0.532674,-0.11123 z"
       id="path19959" />
    <path
       style="fill:#2aff2a;fill-opacity:1;stroke:#000000;stroke-width:0.0310033px;stroke-linecap:butt;stroke-linejoin:miter;stroke-opacity:1"
       d="m 50.232084,134.75513 c -0.01292,0.11782 -0.043,0.55095 -0.04559,0.65793 -0.0024,0.0979 0.02603,0.20373 0.05498,0.30352 -0.03291,-0.10498 -0.05828,-0.21735 -0.05631,-0.31163 0.0037,-0.17711 0.02147,-0.433 0.04693,-0.64982 z"
       id="path19957" />
    <path
       style="fill:#ddff55;fill-opacity:1;stroke:#000000;stroke-width:0.0310033px;stroke-linecap:butt;stroke-linejoin:miter;stroke-opacity:1"
       d="m 55.384307,131.4949 c 0.01559,0.0822 0.02003,0.18241 0.0226,0.29132 -0.0061,-0.14327 -0.01696,-0.24525 -0.0226,-0.29132 z"
       id="path19955" />
    <path
       style="fill:none;stroke:#000000;stroke-width:0.0310033px;stroke-linecap:butt;stroke-linejoin:miter;stroke-opacity:1"
       d="m 55.187933,130.04633 c 0.05628,0.01 0.102768,0.0174 0.133096,0.0219 l -0.681702,0.11601 0.668561,-0.11439 z"
       id="path19953" />
    <path
       style="fill:#ecffec;fill-opacity:1;stroke:#000000;stroke-width:0.0310033px;stroke-linecap:butt;stroke-linejoin:miter;stroke-opacity:1"
       d="m 52.148689,129.96029 c 2.56e-4,0.0133 4.35e-4,0.0263 4.6e-4,0.0406 0.0037,0.17892 0.08375,0.24745 0.08375,0.24745 0,0 -0.08883,-0.067 -0.08465,-0.28841 z"
       id="path19951" />
    <path
       style="fill:#ecffec;fill-opacity:1;stroke:#000000;stroke-width:0.0310033px;stroke-linecap:butt;stroke-linejoin:miter;stroke-opacity:1"
       d="m 55.45648,129.74605 c -0.01014,0.0367 -0.02304,0.0654 -0.03959,0.0826 -0.01057,0.0111 -0.01988,0.0212 -0.02899,0.0305 0.01179,-0.0149 0.024,-0.0336 0.03937,-0.056 0.01188,-0.0171 0.02141,-0.0367 0.02913,-0.0572 z"
       id="path19949" />
    <path
       style="fill:#ecffec;fill-opacity:1;stroke:#000000;stroke-width:0.0310033px;stroke-linecap:butt;stroke-linejoin:miter;stroke-opacity:1"
       d="m 52.658782,129.55582 1.268147,0.23377 c 0,0 0.315237,0.0697 0.687755,0.1458 l -1.948514,-0.37716 z"
       id="path19947" />
    <path
       style="fill:#ecffec;fill-opacity:1;stroke:#000000;stroke-width:0.0310033px;stroke-linecap:butt;stroke-linejoin:miter;stroke-opacity:1"
       d="m 55.469987,129.16232 c 0.01108,0.041 0.0189,0.0887 0.01964,0.1414 4.6e-4,0.0641 2.16e-4,0.13333 -0.0026,0.20047 -1.25e-4,-0.0734 -0.0038,-0.14889 -0.0021,-0.21863 4.86e-4,-0.0443 -0.0049,-0.086 -0.0145,-0.12324 z"
       id="path19945" />
    <path
       style="fill:#ecffec;fill-opacity:1;stroke:#000000;stroke-width:0.0310033px;stroke-linecap:butt;stroke-linejoin:miter;stroke-opacity:1"
       d="m 55.410343,129.0203 c 0.0045,0.008 0.0089,0.0144 0.01372,0.0242 -0.0047,-0.009 -0.0093,-0.0166 -0.01372,-0.0242 z"
       id="path19943" />
    <path
       style="fill:#ecffec;fill-opacity:1;stroke:#000000;stroke-width:0.0310033px;stroke-linecap:butt;stroke-linejoin:miter;stroke-opacity:1"
       d="m 55.385212,128.98255 c 0.0036,0.005 0.0094,0.0131 0.01602,0.0234 -0.0067,-0.0105 -0.01238,-0.0183 -0.01602,-0.0234 z"
       id="path19941" />
    <path
       style="fill:none;stroke:#000000;stroke-width:0.0310033px;stroke-linecap:butt;stroke-linejoin:miter;stroke-opacity:1"
       d="m 54.702243,127.49872 -1.458163,0.44673 c 0,0 -1.052619,0.3084 -1.115434,0.32358 -0.06282,0.015 -0.09328,0.017 -0.104692,0.0762 -0.01144,0.059 0.115529,0.0876 0.115529,0.0876 l -0.04698,0.87552 0.3578,0.0609 c 0,0 2.268944,0.453 2.584921,0.51009 0.17588,0.0317 0.251474,0.0424 0.298405,0.0249 -0.036,0.0183 -0.08581,0.0232 -0.180513,0.005 -0.177664,-0.0351 -3.060506,-0.59965 -3.060613,-0.59968 0,0 -6.7e-5,0 -6.7e-5,0 l -0.03898,0.0391 c -0.03899,0.039 -0.01083,0.0949 -0.01083,0.0949 l 0.377848,0.0697 -0.117229,-0.0195 c 0,0 -4.61e-4,0.005 -0.05486,0.0553 -0.02874,0.027 -0.05509,0.0601 -0.0683,0.0958 -0.0063,0.0168 -0.01135,0.0331 -0.01552,0.0492 0.0064,-0.0331 0.0166,-0.0578 0.0355,-0.091 0.04568,-0.0799 0.0832,-0.10258 0.0832,-0.10258 l -0.179358,-0.0366 c 0,0 -0.06852,0.0239 -0.07043,0.24083 -0.0019,0.21699 -0.0047,0.40156 -0.0047,0.40156 0,0 0.02281,0.16466 0.198915,0.23984 0.03473,0.0143 0.162189,0.0659 0.322019,0.1296 l -0.593171,0.13895 c 0,0 -0.07538,0.0592 -0.0053,0.0969 0.06999,0.038 0.772586,0.13725 0.772586,0.13725 l 0.952971,0.15882 0.371671,0.0609 c 0,0 6.4e-5,7e-5 6.4e-5,7e-5 l -2.016759,-0.32746 -5.37e-4,0.88701 c 0,0 -0.01747,-0.008 -0.07672,0.0458 -0.05922,0.0539 8.43e-4,0.10653 8.43e-4,0.10653 0,0 -0.20937,0.21698 -0.228405,0.22458 -0.01902,0.008 -0.144637,0.12183 -0.51772,0.5406 -0.373084,0.41878 -0.633802,1.03289 -0.633802,1.03289 0,0 -0.176335,0.49526 -0.228828,0.65675 -0.04977,0.15313 -0.09553,0.37857 -0.110507,0.48661 0.01063,-0.0861 0.02247,-0.16529 0.03518,-0.22816 0.04578,-0.22611 0.304154,-0.9152 0.304154,-0.9152 0,0 -0.03766,-0.1104 -0.05649,-0.50879 -0.01883,-0.39842 -0.05389,-0.95295 -0.201942,-1.21145 -0.148057,-0.25842 -0.382235,-0.63793 -0.627201,-0.73484 -0.244966,-0.0969 -0.643373,-0.18033 -0.985246,-0.0969 -0.341877,0.0835 -0.672954,0.1911 -0.923305,0.38489 -0.250354,0.19384 -0.514191,0.40379 -0.651483,0.66489 -0.137289,0.26113 -0.223406,0.37424 -0.220711,0.54383 l 0.0026,0.16954 c 0,0 -0.01614,0.40924 0.312269,0.56536 0.328413,0.15612 0.737618,0.32298 1.136021,0.35527 0.398404,0.0324 0.597577,-0.0159 0.646032,0.0485 0.04847,0.0646 0.253049,0.58683 0.253049,0.58683 0,0 0.446861,0.95295 0.678367,1.23828 0.231507,0.28535 0.441489,0.47653 0.441489,0.47653 0,0 -0.01628,-0.0331 -0.03864,-0.0833 0.02113,0.0464 0.03864,0.0833 0.03864,0.0833 0,0 0.04307,0.0512 0.172273,0.20449 0.129213,0.15345 0.473353,0.28177 0.64276,0.3465 0,0 -0.125613,0.27786 -0.184623,0.56719 -0.05901,0.28938 -0.100915,0.6282 -0.05904,0.82422 0.04188,0.19608 0.08758,0.42069 0.2608,0.53683 0.173214,0.1161 0.325506,0.13891 0.799469,0.14276 0.473971,0.005 0.546275,-0.008 0.649064,-0.0761 0.102788,-0.0686 0.237941,-0.19228 0.283627,-0.3141 0.04569,-0.12179 0.100912,-0.4892 0.102821,-0.79184 0.0016,-0.30268 -0.0019,-0.6282 -0.0019,-0.6282 0,0 -0.02253,5.1e-4 -0.05468,7.7e-4 0.02486,-2.6e-4 0.05468,-7.7e-4 0.05468,-7.7e-4 l 0.917489,-0.005 c 0,0 1.846601,-0.03 2.223789,-0.0334 l 0.01086,1.16788 c 0,0 0.133251,0.53301 0.327405,0.59777 0.194157,0.0647 0.609082,0.12179 0.955517,0.0913 0.346434,-0.0304 0.605304,-0.16373 0.673825,-0.32742 0.06853,-0.1637 0.148505,-0.571 0.133275,-0.74997 -0.01522,-0.17891 -0.04951,-0.48727 -0.156103,-0.76901 -0.106594,-0.2817 -0.156043,-0.37692 -0.156043,-0.37692 0,0 -0.03835,0.0456 -0.159554,0.10032 0.09257,-0.0463 0.159554,-0.10032 0.159554,-0.10032 l 0.117109,-0.0483 c 0.117137,-0.0484 0.129227,-0.10497 0.263826,-0.20732 0.134597,-0.10224 0.212902,-0.28493 0.212902,-0.28493 l 0.08949,-0.493 c 0,0 -0.0038,0.16938 -0.0476,0.33499 -0.04356,0.16467 -0.04191,0.15801 -0.04191,0.15801 0,0 0.266504,-0.0168 0.567256,0.0609 0.300748,0.078 0.559606,0.18081 0.727111,0.15604 0.167507,-0.025 0.218939,-0.025 0.237974,-0.11227 0.01903,-0.0876 -0.0057,-0.20942 -0.05142,-0.27415 -0.04567,-0.0647 -0.18272,-0.26075 -0.315963,-0.36353 -0.133246,-0.1028 -0.273195,-0.20451 -0.407336,-0.29694 -0.148643,-0.10247 -0.241754,-0.15993 -0.432099,-0.18276 -0.190351,-0.0228 -0.264615,-0.005 -0.264615,-0.005 0,0 -0.04503,-0.21407 -0.147327,-0.7632 -0.102292,-0.54922 -0.446835,-1.04988 -0.716031,-1.46981 -0.269195,-0.4199 -0.860084,-0.87079 -0.860084,-0.87079 l -1.557313,0.60969 c 0,0 2.156247,-0.84796 2.376984,-0.93006 0.220737,-0.0822 0.146724,-0.27322 0.169607,-0.52895 0.02283,-0.25573 -0.08488,-0.28398 -0.08488,-0.28398 l -2.858541,0.55777 c 0,0 0.08375,0.005 0.262674,0.0399 0.03461,0.007 0.06291,0.0218 0.08605,0.0431 -0.0083,-0.006 -0.01733,-0.0127 -0.02732,-0.016 -0.0848,-0.0351 -0.32141,-0.0667 -0.32141,-0.0667 l -0.348298,0.0571 3.361508,-0.64535 c 0,0 0.04379,-0.0387 -0.02471,-0.0876 l -0.06854,-0.0497 0.01145,-0.87177 c 0.119943,-0.0283 0.08741,-0.0981 0.08741,-0.0981 l -0.65954,-0.19382 -1.726651,0.68315 -0.114684,0.0195 0.638039,-0.24508 c 0,0 1.087506,-0.43063 1.472452,-0.56519 0.384944,-0.13466 0.333818,-0.23423 0.387658,-0.58689 0.05384,-0.35268 -0.231494,-0.58146 -0.231494,-0.58146 l -0.939445,-0.18034 z"
       id="path19896" />
  </g>
</svg>
