<?xml version="1.0" encoding="UTF-8" standalone="no"?>
<!-- Created with Inkscape (http://www.inkscape.org/) -->

<svg
   width="469.07294"
   height="385.44022"
   viewBox="0 0 124.10893 101.98106"
   version="1.1"
   id="svg5"
   inkscape:version="1.1.2 (b8e25be833, 2022-02-05)"
   sodipodi:docname="motyw jasny.svg"
   xmlns:inkscape="http://www.inkscape.org/namespaces/inkscape"
   xmlns:sodipodi="http://sodipodi.sourceforge.net/DTD/sodipodi-0.dtd"
   xmlns="http://www.w3.org/2000/svg"
   xmlns:svg="http://www.w3.org/2000/svg">
  <sodipodi:namedview
     id="namedview7"
     pagecolor="#ffffff"
     bordercolor="#111111"
     borderopacity="1"
     inkscape:pageshadow="0"
     inkscape:pageopacity="1"
     inkscape:pagecheckerboard="1"
     inkscape:document-units="mm"
     showgrid="false"
     units="px"
     inkscape:zoom="1.2432572"
     inkscape:cx="197.46517"
     inkscape:cy="213.95412"
     inkscape:window-width="1366"
     inkscape:window-height="705"
     inkscape:window-x="-8"
     inkscape:window-y="-8"
     inkscape:window-maximized="1"
     inkscape:current-layer="layer1"
     fit-margin-top="0"
     fit-margin-left="0"
     fit-margin-right="0"
     fit-margin-bottom="0" />
  <defs
     id="defs2" />
  <g
     inkscape:label="Warstwa 1"
     inkscape:groupmode="layer"
     id="layer1"
     transform="translate(-0.27916949,-0.17169345)">
    <path
       style="fill:none;stroke:#000000;stroke-width:0.264583px;stroke-linecap:butt;stroke-linejoin:miter;stroke-opacity:1"
       d="m 0.52787587,46.305205 c 0,0 0.22066072,-1.36467 0.77823493,-2.267906 1.0780416,-1.746362 1.4096095,-2.402749 2.5222143,-3.703197 2.2499699,-2.629837 3.7037778,-3.638798 3.7037778,-3.638798 0,0 1.169614,-1.039657 3.0539931,-1.949358 1.884378,-0.909698 1.884378,-1.299569 5.588156,-2.144291 3.703778,-0.844722 6.631755,-0.446966 6.631755,-0.446966 0,0 2.14035,-0.0079 5.519235,2.136409 3.378886,2.144292 5.259999,8.045517 5.259999,8.045517 0,0 0.263178,1.116459 0.458116,3.32573 0.194934,2.209271 0.178343,6.092734 0.168019,7.342579 -0.01115,1.349458 0.0571,2.022218 0.0571,2.022218 0,0 0.294714,1.486623 0.879519,0.317008 0.584806,-1.169612 1.123468,-2.965543 2.144292,-4.613476 1.395407,-2.252629 2.668062,-3.80288 3.508843,-4.808413 0.796318,-0.952357 1.500612,-1.626364 2.144292,-2.358261 0.75677,-0.860487 1.976272,-1.818724 2.989014,-2.645089 0.907611,-0.740582 1.494506,-1.169615 1.494506,-1.169615 l 0.714764,-0.389871 -0.431875,-0.496857 -0.01509,-0.649784 v 0 l 0.706878,-0.607779 0.129956,-7.927385 c 0,0 -1.559486,-0.03249 -0.909699,-0.747255 0.649785,-0.714764 3.508841,-1.234591 3.508841,-1.234591 l 1.591977,-0.552317 -3.24893,-1.250837 -0.87721,-1.023414 -0.162446,-1.42953 0.03249,-3.671287 c 0,0 -0.06498,-1.120882 0.487341,-1.478262 0.552315,-0.357384 -0.55232,-0.406116 -0.55232,-0.406116 0,0 -0.129958,-0.649785 0.877211,-1.364551 1.007168,-0.714764 0.389871,-7.8624048 0.389871,-7.8624048 0,0 -2.27425,-0.714764 -0.227425,-1.494507 2.046824,-0.779743 9.616826,-2.664121 9.616826,-2.664121 L 73.290407,0.30730927 89.40509,3.1013882 l 12.1185,1.916867 c 2.18126,1.3933172 2.17913,3.8049511 2.1443,4.808414 -0.0975,2.4042058 -0.0975,4.0611598 -0.0975,4.0611598 l -0.25992,0.87721 c 0,0 -0.25991,0.292404 -1.10463,0.45485 -0.84472,0.162447 -4.191121,1.429529 -4.191121,1.429529 0,0 -0.2924,0.584808 1.10464,0.649784 1.397041,0.06498 4.710941,1.202106 4.710941,1.202106 0,0 0.19494,0.422359 -0.45485,1.29957 -0.64978,0.87721 -0.16244,5.523177 -0.16244,5.523177 l 0.0975,2.30674 c 0,0 1.00717,0.03249 0.87721,0.747252 -0.12995,0.714764 -0.97467,0.552318 -1.52699,0.584809 -0.55232,0.03249 0.58481,-0.09747 0.64978,2.241759 0.065,2.339229 -0.19493,3.736268 -0.19493,3.736268 0,0 0.065,1.072145 -2.76159,2.014334 -2.826571,0.942189 -6.530346,2.27425 -6.530346,2.27425 l 4.638085,3.967635 c 0,0 0.92903,0.732864 2.639511,2.855114 1.45278,1.802521 1.87817,2.589856 3.24893,4.873393 1.36446,2.273038 2.07864,3.757609 3.3464,6.725282 1.2851,3.008274 1.63465,4.915398 1.63465,4.915398 0,0 0.31899,3.821381 0.70458,4.409024 0.34109,0.519829 3.34599,0.788099 4.15862,1.055904 0.60544,0.199523 1.66703,0.527196 2.61148,1.059178 0.66355,0.373759 1.40579,0.75871 2.16444,1.442494 0.633,0.570537 1.71799,1.482304 2.44716,2.230737 0.66333,0.680852 1.4647,1.749435 1.83817,2.38322 1.71241,2.906006 1.27034,3.946971 -1.68618,3.329674 -2.95652,-0.617297 -5.36864,-1.164695 -6.3679,-1.250838 -0.94219,-0.08122 -5.23077,-0.08122 -5.49069,-0.08122 -0.21452,0 -1.33711,1.592531 -1.82426,2.081444 -0.23368,0.234525 -0.50587,0.480777 -0.77488,0.680145 -1.76649,1.309175 -3.0215,2.241759 -3.0215,2.241759 0,0 1.59197,2.501676 2.1118,4.775925 0.35741,2.339229 0.87721,3.931196 0.58481,6.822746 -0.29241,2.89155 -0.50647,4.39491 -1.16962,5.91305 -0.68323,1.564099 -0.81223,1.916869 -3.11897,2.144289 -2.30674,0.22743 -10.66994,-0.0673 -10.66994,-0.0673 0,0 -2.634898,-0.29202 -3.527875,-3.344089 -0.574186,-1.96249 -1.007166,-3.76876 -0.974678,-6.49786 0.03249,-2.729095 -0.129958,-6.530342 -0.129958,-6.530342 l -29.142885,0.129958 -1.636686,11.160544 c 0,0 -0.189319,1.05727 -1.059927,3.654569 -0.71206,2.1243 -5.987822,1.67041 -5.987822,1.67041 l -5.99678,-0.16082 c 0,0 -3.310641,-0.34395 -4.25283,-3.885249 -0.942189,-3.54134 -0.719385,-4.06789 -0.178691,-7.4238 0.110342,-0.684858 0.329647,-1.49855 0.466664,-2.19173 0.532913,-2.695993 1.556708,-5.114418 1.556708,-5.114418 0,0 -4.12614,-0.990924 -5.750602,-2.615387 -1.624465,-1.624464 -3.703778,-3.18395 -5.490689,-5.750604 -1.786911,-2.566652 -3.963691,-4.808414 -5.068329,-7.60249 -1.104635,-2.79408 -2.469184,-5.133308 -3.281416,-7.440046 -0.812232,-2.306738 -1.526996,-3.216439 -1.526996,-3.216439 l -7.505024,-0.194935 c 0,0 -1.234593,0.01625 -3.5738217,-0.763499 C 6.4274675,54.840567 2.5618559,52.690327 1.9439469,51.949022 0.74893079,50.515364 0.33087219,49.779567 0.41695055,48.261487 Z"
       id="path273"
       sodipodi:nodetypes="csscsscscsscssssscccccccsccccccscscscccccccscscsccssccsccssscsssssssssssccssscsscccsccssscssssccsssc" />
    <path
       style="fill:none;stroke:#000000;stroke-width:0.264583px;stroke-linecap:butt;stroke-linejoin:miter;stroke-opacity:1"
       d="m 37.630413,68.185025 c 0,0 -0.735147,-4.824413 2.29734,-11.027228 3.032488,-6.202817 4.989064,-8.191606 7.8569,-10.429919 2.825727,-2.205448 7.540716,-3.102377 9.00557,-2.756808 0.88626,0.209075 2.343285,1.14867 1.102723,7.213645 -1.240563,6.064975 -1.964565,8.913675 -2.205445,13.27862 -0.240527,4.358555 -0.04595,7.948792 -0.689203,9.28125 -0.643255,1.332457 -1.654085,1.929765 -4.502785,1.83787 -2.8487,-0.09189 -7.71906,-0.55136 -7.71906,-0.55136 0,0 -2.894647,-0.13784 -4.043315,-2.29734 -1.14867,-2.159498 -1.102725,-4.54873 -1.102725,-4.54873 z"
       id="path1400"
       sodipodi:nodetypes="cssssssscsc" />
    <path
       style="fill:none;stroke:#000000;stroke-width:0.264583px;stroke-linecap:butt;stroke-linejoin:miter;stroke-opacity:1"
       d="m 105.01396,66.071472 c 0,0 0.85721,3.938362 -1.90612,6.813581 -1.84029,1.91481 -2.85196,2.283882 -7.768268,2.467669 -4.916305,0.183788 -5.111952,0.310595 -7.07254,-0.580585 -1.010827,-0.459468 -1.455816,-5.198221 -1.654084,-8.178528 -0.283564,-4.262462 -0.413487,-7.139825 -1.06004,-11.135844 -0.452508,-2.796722 -0.689203,-7.71906 -0.689203,-7.71906 0,0 0.146303,-2.912303 2.618967,-3.629795 0.916316,-0.265887 1.999388,-0.288834 3.128196,0.09517 1.537747,0.523124 3.27035,1.253723 4.058536,1.818825 2.164375,1.551782 3.599445,2.399464 6.154566,7.334762 2.45168,4.735513 3.09907,6.619775 3.74072,9.026354 0.44684,1.675914 0.44927,3.687451 0.44927,3.687451 z"
       id="path1736"
       sodipodi:nodetypes="cssssscsssssc" />
    <path
       style="fill:none;stroke:#000000;stroke-width:0.264583px;stroke-linecap:butt;stroke-linejoin:miter;stroke-opacity:1"
       d="m 62.339591,75.560158 c 0,0 2.443063,1.803471 6.578273,1.803471 2.154204,0 4.486746,0.01522 6.702946,-0.106935 1.854103,-0.102194 3.177125,-0.554147 3.91307,-1.260717 1.54182,-1.480279 1.791923,-1.837872 1.883818,-7.30554 0.09189,-5.467665 0.09189,-9.097462 -0.551363,-12.451577 C 80.22308,52.884745 78.79873,47.600865 77.971688,46.130567 77.144648,44.660273 76.731125,44.38459 76.731125,44.38459 L 65.933633,42.54672 c 0,0 -3.032488,3.078435 -4.227105,9.327198 -1.194618,6.248759 -2.081024,14.261059 -1.70003,17.965189 0.413519,4.020344 2.333093,5.721051 2.333093,5.721051 z"
       id="path1738"
       sodipodi:nodetypes="cssssssccssc" />
    <path
       style="fill:none;stroke:#000000;stroke-width:0.264583px;stroke-linecap:butt;stroke-linejoin:miter;stroke-opacity:1"
       d="m 34.781713,55.779392 c 0,0 -1.672079,4.268609 -2.205445,6.110923 -0.665134,2.297458 -1.14867,6.386602 -1.14867,6.386602 0,0 -0.390551,4.27305 0.551363,7.673113 0.621855,2.244735 1.194615,2.664912 1.194615,2.664912"
       id="path2095"
       sodipodi:nodetypes="cscsc" />
    <path
       style="fill:none;stroke:#000000;stroke-width:0.264583px;stroke-linecap:butt;stroke-linejoin:miter;stroke-opacity:1"
       d="m 40.96358,83.203693 c -0.06181,-0.01397 2.121399,0.768801 3.489931,1.053188 0,0 0.582065,0.215412 5.812267,0.859532 4.78365,0.589125 7.522547,0.510079 7.787166,0.37777 v 0 0"
       id="path2097"
       sodipodi:nodetypes="ccsccc" />
    <path
       style="fill:none;stroke:#000000;stroke-width:0.264583px;stroke-linecap:butt;stroke-linejoin:miter;stroke-opacity:1"
       d="m 87.195827,85.364225 c 0,0 1.900616,0.16247 7.115146,-0.714743 5.214526,-0.87721 8.414717,-2.014331 9.096997,-2.258005 0.68229,-0.24367 0.68229,-0.24367 0.68229,-0.24367"
       id="path2099" />
    <path
       style="fill:none;stroke:#000000;stroke-width:0.264583px;stroke-linecap:butt;stroke-linejoin:miter;stroke-opacity:1"
       d="m 109.98705,66.812868 c 0.17579,2.01808 0.23949,3.19395 0.1787,5.831826 0,0 -0.17429,2.350778 -0.3249,2.97277 -0.46543,1.922101 -0.42881,1.818325 -0.42236,1.8194 h -0.0162"
       id="path2101"
       sodipodi:nodetypes="ccscc" />
    <path
       style="fill:none;stroke:#000000;stroke-width:0.264583px;stroke-linecap:butt;stroke-linejoin:miter;stroke-opacity:1"
       d="M 98.014719,16.649418 80.47054,23.439676 78.228778,23.407188 48.403619,17.884011 v 0 0"
       id="path3127" />
    <path
       style="fill:none;stroke:#000000;stroke-width:0.264583px;stroke-linecap:butt;stroke-linejoin:miter;stroke-opacity:1"
       d="m 49.670701,8.6570552 12.638331,1.7869098 8.869571,1.397039 6.887729,1.072146 1.591974,0.45485 c 0,0 1.267081,1.169615 1.234593,3.703777 -0.03249,2.534166 -0.45485,5.295755 -1.429528,5.100818 -0.97468,-0.194935 -6.595324,-0.974678 -6.595324,-0.974678 L 66.922508,20.12577 59.70989,18.793709 48.988425,16.844355"
       id="path3129" />
    <path
       style="fill:none;stroke:#000000;stroke-width:0.264583px;stroke-linecap:butt;stroke-linejoin:miter;stroke-opacity:1"
       d="m 81.440671,22.100403 8.109606,-3.239249 c 0,0 0.344602,-0.528388 0.390549,-2.57302 0.04595,-2.044632 -0.620281,-5.306853 -1.171644,-5.605508 -0.551362,-0.298654 -7.856899,2.182473 -7.856899,2.182473 0,0 1.28651,1.171643 1.217588,3.514928 -0.06892,2.343287 -0.13784,4.548732 -0.758121,5.214961 -0.620281,0.666229 0.06892,0.505415 0.06892,0.505415 z"
       id="path3131" />
    <path
       style="fill:none;stroke:#000000;stroke-width:0.264583px;stroke-linecap:butt;stroke-linejoin:miter;stroke-opacity:1"
       d="M 103.47215,19.596302 80.47054,23.439676"
       id="path3133" />
    <path
       style="fill:none;stroke:#000000;stroke-width:0.264583px;stroke-linecap:butt;stroke-linejoin:miter;stroke-opacity:1"
       d="m 103.31051,27.630795 -30.94433,5.657649 0.321628,-8.775837 7.782732,-1.072931"
       id="path3135" />
    <path
       style="fill:none;stroke:#000000;stroke-width:0.264583px;stroke-linecap:butt;stroke-linejoin:miter;stroke-opacity:1"
       d="M 72.36618,33.288444 50.320486,24.739247 c 0,0 -0.129959,0.682277 -0.06498,-1.884377 0.06498,-2.566654 -0.584806,-4.418541 0.357383,-4.516008 0.942189,-0.09747 8.674637,1.559483 8.674637,1.559483 l 13.400281,4.614262"
       id="path3137"
       sodipodi:nodetypes="ccsscc" />
    <path
       style="fill:none;stroke:#000000;stroke-width:0.264583px;stroke-linecap:butt;stroke-linejoin:miter;stroke-opacity:1"
       d="M 52.724694,27.143457 71.990837,34.5835 74.07015,34.48603 102.49827,29.06032"
       id="path3139" />
    <path
       style="fill:none;stroke:#000000;stroke-width:0.264583px;stroke-linecap:butt;stroke-linejoin:miter;stroke-opacity:1"
       d="M 93.823642,39.229467 80.275602,44.525221 76.731125,44.38459"
       id="path3141" />
    <path
       style="fill:none;stroke:#000000;stroke-width:0.264583px;stroke-linecap:butt;stroke-linejoin:miter;stroke-opacity:1"
       d="M 65.933633,42.54672 48.143703,39.359425"
       id="path3143" />
    <path
       style="fill:none;stroke:#000000;stroke-width:0.264583px;stroke-linecap:butt;stroke-linejoin:miter;stroke-opacity:1"
       d="M 48.403619,37.605005 78.982518,42.8224 c 0,0 1.194617,-0.597307 1.194617,-2.756807 0,-2.159498 -0.239183,-4.458869 -1.364467,-5.510826 -0.804272,-0.751863 -3.126418,-0.207707 -2.044632,-0.59731"
       id="path3145"
       sodipodi:nodetypes="ccssc" />
    <path
       style="fill:none;stroke:#000000;stroke-width:0.264583px;stroke-linecap:butt;stroke-linejoin:miter;stroke-opacity:1"
       d="m 48.533575,29.67762 18.258977,2.891546"
       id="path3773" />
    <path
       style="fill:none;stroke:#000000;stroke-width:0.264583px;stroke-linecap:butt;stroke-linejoin:miter;stroke-opacity:1"
       d="m 80.308093,34.291098 7.472535,-2.371719 c 0,0 1.526995,1.754423 1.33206,4.353565 -0.194937,2.599142 -0.552317,4.321074 -0.552317,4.321074 l -8.187301,2.924035 c 0,0 1.234593,-2.176782 1.267084,-4.093649 0.03249,-1.916869 -0.51983,-3.768757 -0.97468,-4.353565 -0.454851,-0.584806 -0.357381,-0.779741 -0.357381,-0.779741 z"
       id="path3775" />
    <ellipse
       style="fill:#000000;stroke-width:0.264583"
       id="path3831"
       cx="17.668758"
       cy="41.893589"
       rx="3.2489281"
       ry="3.1839495" />
    <path
       style="fill:#000000;fill-opacity:0;stroke-width:0.992383"
       d="m 167.7127,383.16458 c -4.63939,-0.37652 -9.3788,-1.20693 -10.53202,-1.84535 -8.89659,-4.92513 -13.11482,-18.73593 -10.69489,-35.01592 1.92685,-12.96283 6.64811,-30.73923 8.15759,-30.71483 0.36549,0.006 2.8974,0.70076 5.62645,1.54411 7.68646,2.37531 29.38227,5.37231 43.89365,6.06333 12.66547,0.60312 13.11376,0.69881 12.67661,2.70592 -0.24925,1.14438 -1.38696,8.77927 -2.52824,16.96643 -3.98561,28.5913 -6.20303,36.26772 -11.24447,38.92696 -3.53365,1.86391 -20.94938,2.53845 -35.35468,1.36935 z"
       id="path15712"
       transform="matrix(0.26458333,0,0,0.26458333,0.27916949,0.17169345)" />
    <path
       style="fill:#47ad96;fill-opacity:1;stroke-width:0.854961"
       d="m 272.30521,82.823414 c -12.22595,-2.310324 -32.42442,-6.153768 -44.88548,-8.540986 -12.46106,-2.387218 -27.0809,-5.084589 -32.48853,-5.994159 -11.75797,-1.977702 -12.55291,-2.214778 -11.37524,-3.392445 0.60355,-0.603556 14.2104,1.558088 43.29862,6.87861 43.24868,7.910613 68.00776,12.011783 72.51605,12.011783 4.12184,0 5.37811,-4.075386 5.40275,-17.526709 0.0185,-10.073739 -0.16055,-11.405408 -1.9116,-14.221194 -1.46822,-2.360988 -2.80214,-3.324085 -5.55725,-4.012356 -5.03863,-1.258737 -65.30468,-10.614747 -89.12143,-13.83567 -18.88215,-2.553578 -24.3664,-3.70877 -24.3664,-5.132494 0,-1.10086 5.70241,-3.024277 21.37404,-7.209441 8.229,-2.197586 27.53721,-7.672636 42.90713,-12.1667778 l 27.9453,-8.1711684 35.32184,6.061255 c 19.42701,3.3336902 43.01649,7.2428882 52.42106,8.6871062 9.40458,1.444217 17.99676,3.075676 19.09374,3.625464 1.09698,0.549788 3.01764,2.745021 4.26813,4.878295 2.00074,3.413163 2.31148,4.983387 2.58908,13.083068 0.1735,5.062413 0.0611,10.900279 -0.24968,12.973033 l -0.56514,3.768646 -8.21558,2.710358 c -4.51858,1.490697 -24.02047,8.829924 -43.33755,16.309394 -27.94567,10.820414 -35.90994,13.580441 -38.97842,13.508009 -2.12105,-0.05007 -13.8595,-1.981296 -26.08544,-4.291621 z m 50.25259,-5.119843 c 10.26748,-4.112269 15.50103,-6.651491 16.12946,-7.825715 0.59811,-1.11758 0.77428,-5.431866 0.49339,-12.082864 -0.44053,-10.431221 -1.33747,-15.078334 -3.47432,-18.000644 -1.12388,-1.536997 -1.36875,-1.540942 -7.05103,-0.113598 -6.08202,1.527755 -24.44677,7.28741 -25.06752,7.861815 -0.19304,0.178634 0.31458,1.060232 1.12805,1.959106 0.81347,0.898874 2.0525,3.498178 2.75341,5.776231 1.69214,5.499746 0.84451,19.417163 -1.4576,23.932617 -1.61361,3.165004 -1.51245,4.573743 0.32874,4.578117 0.56003,0.0014 7.85787,-2.736949 16.21742,-6.085065 z"
       id="path27980"
       transform="matrix(0.26458333,0,0,0.26458333,0.27916949,0.17169345)" />
    <path
       style="fill:#ecb348;fill-opacity:1;stroke-width:0.854961"
       d="m 315.552,84.334963 c 0.19593,-0.168419 11.99582,-4.809601 26.22197,-10.313737 23.27592,-9.005515 26.14363,-9.922629 28.64121,-9.159664 1.52651,0.466322 5.66097,1.475726 9.18768,2.243119 8.16051,1.775681 11.28322,3.111353 10.42958,4.461035 -0.38057,0.601717 -15.67406,3.540193 -36.71004,7.053432 -34.81854,5.815077 -38.54125,6.378436 -37.7704,5.715815 z"
       id="path29932"
       transform="matrix(0.26458333,0,0,0.26458333,0.27916949,0.17169345)" />
    <path
       style="fill:#ecb348;fill-opacity:1;stroke-width:0.854961"
       d="m 228.70217,112.73695 c -23.04121,-8.9283 -42.66257,-16.988263 -43.60303,-17.911029 -1.49986,-1.471648 -1.74422,-3.024998 -1.98909,-12.644443 -0.23943,-9.405591 -0.0732,-11.172679 1.16794,-12.413793 0.79591,-0.79591 1.81705,-1.323794 2.26921,-1.173075 0.45216,0.150719 1.02493,5.842701 1.27282,12.648849 0.2479,6.806148 0.50658,12.410652 0.57484,12.454454 0.0683,0.0438 18.97603,7.369617 42.01724,16.279597 l 41.89311,16.19995 57.28241,-10.49362 c 31.50533,-5.7715 58.34043,-10.50037 59.63356,-10.50861 3.67715,-0.0234 2.95344,2.29996 -0.85496,2.74477 -1.76336,0.20595 -27.53008,5.05552 -57.25938,10.77682 -29.7293,5.72129 -55.50638,10.37334 -57.28241,10.33787 -2.03182,-0.0406 -18.76267,-6.0836 -45.12226,-16.29774 z"
       id="path29971"
       transform="matrix(0.26458333,0,0,0.26458333,0.27916949,0.17169345)" />
    <path
       style="fill:#ecb348;fill-opacity:1;stroke-width:0.854961"
       d="m 257.03408,85.261254 c -8.39912,-2.892262 -14.82599,-5.407035 -14.28194,-5.588385 0.54405,-0.18135 12.03285,1.725663 25.53066,4.237808 l 24.54148,4.567535 -7.26717,1.009401 c -3.99695,0.555171 -8.61374,1.014553 -10.25954,1.02085 -1.6458,0.0063 -9.86437,-2.354948 -18.26349,-5.247209 z"
       id="path30010"
       transform="matrix(0.26458333,0,0,0.26458333,0.27916949,0.17169345)" />
    <path
       style="fill:#5c85bd;fill-opacity:1;stroke-width:0.854961"
       d="m 334.63225,152.39687 c 1.08676,-3.5535 2.34198,-17.9327 1.83965,-21.07411 -0.30196,-1.88837 -1.27878,-5.08314 -2.17071,-7.0995 l -1.62169,-3.6661 1.8739,-0.44987 c 1.03065,-0.24743 13.02891,-2.56767 26.66279,-5.15609 23.13297,-4.39184 24.86061,-4.60813 25.86259,-3.23785 1.44228,1.97244 1.42417,18.99974 -0.0222,20.86991 -1.98681,2.56897 -5.39021,4.14879 -19.85066,9.21447 -7.99389,2.80036 -18.55229,6.66741 -23.46312,8.59344 -4.91082,1.92604 -9.07262,3.50188 -9.24844,3.50188 -0.17583,0 -0.11377,-0.67328 0.13789,-1.49618 z"
       id="path31765"
       transform="matrix(0.26458333,0,0,0.26458333,0.27916949,0.17169345)" />
    <path
       style="fill:#5c85bd;fill-opacity:1;stroke-width:0.854961"
       d="m 209.89302,115.00427 c -12.22594,-1.99397 -24.10767,-3.90164 -26.40382,-4.23927 -3.52405,-0.51818 -3.9905,-0.79388 -2.99237,-1.76867 1.0673,-1.04233 15.5614,-5.546 17.84862,-5.546 1.0443,0 38.56705,14.33755 39.21284,14.98334 0.93629,0.93629 -6.70498,-0.0109 -27.66527,-3.4294 z"
       id="path31804"
       transform="matrix(0.26458333,0,0,0.26458333,0.27916949,0.17169345)" />
    <path
       style="fill:#5c85bd;fill-opacity:1;stroke-width:0.854961"
       d="m 289.83191,166.14713 c -28.38358,-4.4816 -105.23139,-18.15052 -107.57227,-19.13388 -2.387,-1.00273 -2.19671,-3.70683 0.28335,-4.02647 0.93566,-0.12059 27.28591,4.1715 58.55612,9.53798 63.03318,10.81752 58.66918,10.52095 60.77827,4.13035 1.32911,-4.02723 0.53509,-18.47211 -1.24014,-22.56092 -0.74673,-1.71992 -2.32216,-3.88577 -3.50095,-4.81301 l -2.14326,-1.68589 7.70948,-1.49745 c 8.4176,-1.63499 11.05964,-1.39691 4.15002,0.37397 -2.37763,0.60937 -4.52494,1.6343 -4.77181,2.27762 -0.24687,0.64331 0.37176,2.86481 1.37472,4.93665 4.01163,8.28692 3.89733,17.53476 -0.33087,26.77037 -1.14595,2.50311 -1.74636,4.5511 -1.33423,4.5511 0.41215,0 3.91291,-1.16644 7.77948,-2.59209 3.86657,-1.42565 7.41874,-2.46256 7.8937,-2.30424 0.47497,0.15832 -2.85059,1.7095 -7.39013,3.44706 -8.09848,3.09978 -13.01945,3.72916 -20.24148,2.58885 z"
       id="path31843"
       transform="matrix(0.26458333,0,0,0.26458333,0.27916949,0.17169345)" />
    <path
       style="fill:#9edbc8;fill-opacity:1;stroke-width:0.854961"
       d="m 308.67543,78.536625 c 0.44779,-1.561343 1.05016,-6.886089 1.3386,-11.832768 0.51036,-8.752473 0.22876,-10.629242 -2.58004,-17.195167 -0.48182,-1.126313 1.45522,-1.964315 11.21308,-4.850989 17.02813,-5.037445 15.39779,-5.046691 16.98713,0.09634 1.56004,5.048204 2.56631,17.766504 1.74996,22.117989 -0.54409,2.900257 -0.74076,3.01693 -14.00625,8.309026 -7.39992,2.952105 -13.91841,5.553518 -14.48552,5.780918 -0.77537,0.310903 -0.82918,-0.290668 -0.21696,-2.425352 z"
       id="path33364"
       transform="matrix(0.26458333,0,0,0.26458333,0.27916949,0.17169345)" />
    <path
       style="fill:#3f5983;fill-opacity:1;stroke-width:0.854961"
       d="m 305.66126,160.09152 c 2.49797,-5.99922 3.22423,-11.72797 2.26721,-17.88379 -0.54037,-3.47576 -1.71078,-7.73916 -2.60092,-9.47422 l -1.61844,-3.15466 12.93925,-4.08394 c 7.11659,-2.24617 13.21793,-4.0854 13.55852,-4.08717 0.9613,-0.005 3.08751,4.55293 4.04459,8.67033 1.30783,5.62633 -0.52352,21.03312 -2.63441,22.16284 -1.60921,0.86122 -25.33914,9.34679 -26.13834,9.34679 -0.24224,0 -0.1601,-0.67328 0.18254,-1.49618 z"
       id="path35353"
       transform="matrix(0.26458333,0,0,0.26458333,0.27916949,0.17169345)" />
    <path
       style="fill:#f3f2f2;fill-opacity:1;stroke-width:0.854961"
       d="m 285.98459,80.308238 c -5.64275,-0.893003 -14.4916,-2.379226 -19.66411,-3.302716 -16.96908,-3.029625 -76.04924,-13.789148 -77.9552,-14.196994 -1.6635,-0.355965 -1.77827,-0.696437 -1.0687,-3.170548 0.43721,-1.524467 0.79493,-8.064372 0.79493,-14.533122 0,-6.965003 0.33556,-11.761363 0.82285,-11.761363 5.07656,0 105.49032,15.688749 108.87249,17.010348 1.62839,0.636305 2.96522,2.219916 4.16655,4.935727 1.51699,3.429392 1.71426,5.225625 1.38538,12.614145 -0.44262,9.943988 -1.7762,13.674946 -4.96357,13.886632 -1.17209,0.07784 -6.74788,-0.589105 -12.39062,-1.482109 z"
       id="path36718"
       transform="matrix(0.26458333,0,0,0.26458333,0.27916949,0.17169345)" />
    <path
       style="fill:#f3f2f2;fill-opacity:1;stroke-width:0.854961"
       d="m 273.96778,108.92478 c 0.34042,-8.41858 0.87507,-15.547038 1.18811,-15.841022 0.31304,-0.293983 5.76305,-1.204378 12.11114,-2.0231 6.34809,-0.818722 31.54808,-4.82765 55.99997,-8.90873 l 44.45799,-7.420144 0.20525,14.172877 0.20526,14.172879 -55.77774,10.16728 c -30.67776,5.59201 -56.50476,10.3516 -57.39334,10.57688 -1.55616,0.39452 -1.59282,-0.1535 -0.99664,-14.89692 z"
       id="path36757"
       transform="matrix(0.26458333,0,0,0.26458333,0.27916949,0.17169345)" />
    <path
       style="fill:#f3f2f2;fill-opacity:1;stroke-width:0.854961"
       d="m 238.32049,150.22157 -55.35875,-9.48684 v -13.93991 c 0,-9.97649 0.28097,-13.93992 0.98822,-13.93992 0.54352,0 15.64428,2.31292 33.55724,5.13982 30.54061,4.81971 33.2197,5.38607 43.0168,9.0938 11.32896,4.28746 9.9566,4.16609 26.74303,2.36511 6.60943,-0.70911 9.11574,0.48512 11.27834,5.37406 2.5412,5.74481 3.15565,17.64422 1.13136,21.91009 -1.18504,2.49728 -1.95134,3.12267 -3.74376,3.05532 -1.23955,-0.0466 -27.16517,-4.35376 -57.61248,-9.57153 z"
       id="path36796"
       transform="matrix(0.26458333,0,0,0.26458333,0.27916949,0.17169345)" />
    <path
       style="fill:#dad9d7;fill-opacity:1;stroke-width:0.854961"
       d="m 231.26706,108.09322 c -22.10075,-8.616701 -40.42013,-15.783312 -40.70973,-15.9258 -0.70847,-0.348577 -1.49929,-20.859483 -0.84478,-21.910334 0.3176,-0.509916 6.60477,0.295296 16.33315,2.091824 13.60469,2.512361 19.37811,4.14234 41.28087,11.654611 l 25.46409,8.733746 -0.57251,15.402323 c -0.31487,8.47128 -0.61647,15.45139 -0.6702,15.51135 -0.0537,0.06 -18.18014,-6.94101 -40.28089,-15.55772 z"
       id="path38005"
       transform="matrix(0.26458333,0,0,0.26458333,0.27916949,0.17169345)" />
    <path
       style="fill:#05d466;fill-opacity:1;stroke-width:0.804339"
       d="m 117.271,288.14598 c -3.95189,-4.23541 -19.562772,-25.83259 -21.747074,-30.0864 -2.972008,-5.78784 -11.45989,-24.62731 -14.366319,-31.88708 -1.294554,-3.23359 -3.259916,-7.66751 -4.367468,-9.85315 l -2.013732,-3.97391 -5.415737,-0.037 c -2.978655,-0.0204 -11.026,-0.34983 -17.882988,-0.73216 -14.043953,-0.78305 -18.417082,-1.95384 -30.967043,-8.29056 -9.552677,-4.82333 -13.6505975,-7.90919 -16.5276323,-12.4458 -2.0960363,-3.30511 -2.3743291,-4.4647 -2.3743291,-9.89333 0,-8.09291 1.2345172,-11.85359 6.5912635,-20.07883 15.4254159,-23.6856 39.2472209,-37.77902 66.2013969,-39.16595 11.088413,-0.57056 16.054409,0.42105 25.30827,5.05354 9.607072,4.80932 14.577212,10.20079 20.538422,22.27955 2.44777,4.95972 4.845,11.00841 5.32718,13.44153 0.48219,2.43313 1.20862,14.01561 1.6143,25.73885 0.40567,11.72323 0.7847,22.21985 0.84229,23.32582 0.0576,1.10597 -1.60562,6.71623 -3.69602,12.46725 -5.59391,15.38975 -7.97909,30.01228 -7.41287,45.44514 0.24126,6.57575 0.95927,13.57622 1.64612,16.04938 0.67,2.41255 1.11466,4.49 0.9881,4.61656 -0.12655,0.12655 -1.15532,-0.7615 -2.28613,-1.97345 z M 74.992248,165.78556 c 3.157579,-3.38509 3.202639,-3.51924 2.880635,-8.57622 -0.258889,-4.06577 -0.738946,-5.57813 -2.301503,-7.25059 -2.920715,-3.12616 -5.847099,-4.37343 -10.261047,-4.37343 -12.149395,0 -16.730796,15.5466 -6.593602,22.37483 2.398881,1.61585 3.573252,1.84953 7.941474,1.58028 4.835028,-0.29803 5.308542,-0.51137 8.334043,-3.75487 z"
       id="path41431"
       transform="matrix(0.26458333,0,0,0.26458333,0.27916949,0.17169345)" />
    <path
       style="fill:#05d466;fill-opacity:1;stroke-width:0.804339"
       d="m 160.00285,382.4237 c -3.87048,-1.19251 -8.82386,-5.37937 -10.70319,-9.0469 -2.46582,-4.81208 -3.94911,-13.6487 -3.50566,-20.88471 0.656,-10.70437 6.3783,-35.3919 8.50862,-36.70851 0.34331,-0.21218 3.55128,0.4652 7.12881,1.50529 8.67472,2.52199 29.24259,5.25256 43.87605,5.82495 6.52519,0.25523 11.86355,0.68294 11.863,0.95047 -0.009,4.28244 -6.88479,44.65421 -8.3703,49.14492 -2.14595,6.48723 -3.76668,8.34933 -8.3831,9.63153 -4.60306,1.27849 -35.96138,0.9549 -40.41423,-0.41704 z"
       id="path41470"
       transform="matrix(0.26458333,0,0,0.26458333,0.27916949,0.17169345)" />
    <path
       style="fill:#05d466;fill-opacity:1;stroke-width:0.804339"
       d="m 350.69171,382.96669 c -10.79296,-0.81179 -14.54647,-3.83457 -17.60458,-14.17736 -2.64442,-8.94365 -3.29566,-15.06666 -3.30215,-31.04693 l -0.006,-14.96017 8.24447,-0.49298 c 13.59319,-0.8128 32.83023,-4.71637 52.9132,-10.73712 1.94243,-0.58233 7.11121,10.73304 9.04076,19.79183 4.13945,19.43373 -0.12519,46.92506 -7.86217,50.68225 -2.67835,1.30065 -28.76144,1.89284 -41.42345,0.94048 z"
       id="path41509"
       transform="matrix(0.26458333,0,0,0.26458333,0.27916949,0.17169345)" />
    <path
       style="fill:#05d466;fill-opacity:1;stroke-width:0.804339"
       d="m 449.62538,293.15784 c -11.26345,-2.31828 -14.96025,-2.73614 -24.43179,-2.76157 l -11.1602,-0.03 0.54256,-2.6141 c 1.13034,-5.4461 1.97166,-20.21314 1.51791,-26.64282 l -0.47212,-6.68993 7.16843,1.42792 c 8.71722,1.73645 14.75837,3.93067 20.03761,7.27791 15.24467,9.66571 28.95596,28.81764 22.93726,32.03875 -1.9355,1.03585 -0.48207,1.21652 -16.13966,-2.00619 z"
       id="path41548"
       transform="matrix(0.26458333,0,0,0.26458333,0.27916949,0.17169345)" />
    <path
       style="fill:#058f66;fill-opacity:1;stroke-width:0.804339"
       d="m 191.43263,320.46381 c -16.99098,-2.01909 -24.45208,-3.45851 -35.39091,-6.82775 -15.33011,-4.72179 -19.68668,-6.96819 -26.80358,-13.82089 -5.40046,-5.2 -6.22815,-6.40492 -7.66643,-11.16064 -2.0143,-6.66032 -3.33396,-15.95562 -3.33375,-23.48202 1.7e-4,-6.33954 2.50666,-23.1178 4.58739,-30.70775 1.65663,-6.04294 7.04325,-20.55544 9.06805,-24.43094 0.83809,-1.60412 3.51586,-7.07904 5.95059,-12.16648 2.49029,-5.20354 6.80967,-12.41661 9.87401,-16.48894 10.34358,-13.74605 31.06519,-32.93881 34.65563,-32.09872 0.77978,0.18246 14.62905,2.67836 30.77615,5.54646 16.1471,2.8681 30.14522,5.40076 31.10694,5.62814 1.68634,0.3987 1.63311,0.58633 -1.49574,5.27182 -6.47826,9.70126 -10.39486,21.59829 -13.49393,40.98897 -2.97397,18.60788 -4.28649,32.49668 -4.37066,46.24948 -0.0735,12.01396 0.13192,14.3572 1.69263,19.30413 3.55149,11.257 7.40147,14.99835 19.17083,18.62993 4.09116,1.26238 7.55507,1.47356 23.69364,1.44449 21.2811,-0.0384 25.87258,-0.82906 31.01085,-5.34051 5.56466,-4.88583 6.17047,-7.15494 6.83279,-25.59248 0.81752,-22.75845 -0.17679,-42.13098 -2.775,-54.06616 -3.83037,-17.59525 -8.15572,-31.35132 -11.39875,-36.25186 l -2.01794,-3.04931 6.26623,0.10699 c 6.20851,0.10601 6.49471,0.0172 31.07673,-9.64163 l 24.81049,-9.74862 6.90501,5.85303 c 16.05994,13.61324 21.96163,20.35414 30.69059,35.05477 12.60169,21.22278 18.93494,37.12121 21.54781,54.09175 1.76833,11.4853 1.97584,36.83263 0.35322,43.14685 -1.45966,5.68004 -5.44348,10.50739 -13.81591,16.74122 -9.2601,6.89477 -18.80413,10.13506 -43.0197,14.60561 -10.6586,1.96774 -13.30373,2.1126 -49.46683,2.70904 -59.34095,0.9787 -104.22929,0.78436 -115.02045,-0.49798 z m 9.87899,-36.02639 c 3.57054,-1.52139 6.20462,-4.59884 7.07884,-8.27039 0.40518,-1.70171 1.09432,-11.59989 1.53143,-21.99597 0.84125,-20.00848 2.0094,-28.84632 6.85727,-51.87986 1.58285,-7.52056 3.09124,-17.13103 3.35197,-21.3566 0.4091,-6.6302 0.2505,-8.18821 -1.15754,-11.37131 -2.20191,-4.97778 -5.02633,-5.95301 -13.51453,-4.66634 -17.37863,2.63431 -31.09859,11.12503 -42.52573,26.31741 -7.4375,9.88816 -17.58957,30.39188 -20.21993,40.83738 -3.97359,15.77958 -3.41181,31.72584 1.45848,41.39876 2.32081,4.60939 3.14113,5.46991 7.18458,7.53662 3.79,1.93717 6.31521,2.50544 14.88026,3.34867 14.60917,1.43827 31.8209,1.48814 35.0749,0.10163 z m 161.84734,0.32028 c 14.4732,-0.96158 18.39044,-2.15499 24.04907,-7.32665 4.86389,-4.44533 7.97287,-9.97459 9.3953,-16.70937 1.48424,-7.02743 -0.21831,-22.15808 -3.6934,-32.8237 -3.11106,-9.5483 -12.82055,-29.83002 -18.22724,-38.07403 -13.8634,-21.13865 -43.38368,-32.40956 -52.25493,-19.95105 -4.16624,5.85095 -4.31925,14.79586 -0.71274,41.6682 1.57251,11.71689 2.73704,24.07192 3.67694,39.01043 0.88764,14.10788 3.13784,27.81104 5.05623,30.79134 0.36494,0.56694 2.44487,1.72635 4.62207,2.57648 4.57363,1.78585 10.95896,1.97643 28.0887,0.83835 z"
       id="path41587"
       transform="matrix(0.26458333,0,0,0.26458333,0.27916949,0.17169345)" />
    <path
       style="fill:#05ff66;fill-opacity:1;stroke-width:0.804339"
       d="m 168.30744,282.70142 c -16.87637,-1.5309 -21.00479,-4.01776 -24.39067,-14.69234 -2.18195,-6.87897 -2.42732,-22.54913 -0.48865,-31.20617 4.11315,-18.3671 15.80236,-39.84936 28.64299,-52.63972 11.58315,-11.53778 23.24309,-17.0856 36.15392,-17.20209 6.48777,-0.0585 6.80161,0.0237 8.44556,2.21326 2.9358,3.91016 2.27565,13.45673 -2.56814,37.13854 -4.23219,20.69157 -5.18179,28.87905 -6.44621,55.57908 -0.73269,15.47174 -1.57167,18.09473 -6.59891,20.63077 -3.38938,1.7098 -15.16291,1.77404 -32.74989,0.17867 z"
       id="path43408"
       transform="matrix(0.26458333,0,0,0.26458333,0.27916949,0.17169345)" />
    <path
       style="fill:#05ff66;fill-opacity:1;stroke-width:0.804339"
       d="m 254.9754,290.71742 c -10.6202,-1.8646 -16.73258,-4.01778 -19.98801,-7.04109 -2.49105,-2.31342 -6.05643,-9.50528 -7.44976,-15.02718 -3.04416,-12.06431 1.54092,-60.20029 7.78746,-81.75579 2.209,-7.62278 6.44733,-16.5583 10.47131,-22.07627 l 2.69231,-3.69188 19.71598,3.37878 c 10.84379,1.85832 20.29578,3.85997 21.00443,4.44809 3.74501,3.10809 9.21448,18.93828 13.78371,39.894 2.22895,10.22255 2.25374,10.64588 2.25374,38.4881 0,21.01562 -0.26442,28.89748 -1.04311,31.0933 -1.61661,4.55868 -7.90506,9.95963 -12.82462,11.01469 -4.20846,0.90255 -32.81787,1.90477 -36.40344,1.27525 z"
       id="path43447"
       transform="matrix(0.26458333,0,0,0.26458333,0.27916949,0.17169345)" />
    <path
       style="fill:#05ff66;fill-opacity:1;stroke-width:0.804339"
       d="m 336.92015,282.71389 c -2.04453,-0.65107 -4.11219,-1.65954 -4.5948,-2.24105 -2.41626,-2.91141 -3.9168,-13.51397 -6.21223,-43.89443 -0.68094,-9.01237 -1.94429,-21.31876 -2.80744,-27.34752 -0.86316,-6.02876 -1.77418,-15.84774 -2.0245,-21.81995 -0.4337,-10.34737 -0.36687,-11.00893 1.41945,-14.05215 1.03101,-1.75646 3.13589,-4.04998 4.6775,-5.0967 7.73526,-5.25207 27.74983,2.31164 39.56332,14.95138 4.95355,5.3 8.14741,10.38528 14.55299,23.17125 9.36288,18.68896 12.10858,26.99856 13.35693,40.4235 1.23966,13.33146 -0.81678,20.88996 -7.57557,27.84424 -6.59038,6.781 -11.41525,8.02544 -34.17107,8.81347 -9.70349,0.33603 -13.29132,0.16931 -16.18458,-0.75204 z"
       id="path43486"
       transform="matrix(0.26458333,0,0,0.26458333,0.27916949,0.17169345)" />
  </g>
</svg>
