<?xml version="1.0" encoding="UTF-8" standalone="no"?>
<!-- Created with Inkscape (http://www.inkscape.org/) -->

<svg
   width="210mm"
   height="297mm"
   viewBox="0 0 210 297"
   version="1.1"
   id="svg15847"
   inkscape:version="1.1.2 (b8e25be833, 2022-02-05)"
   sodipodi:docname="logologo.svg"
   xmlns:inkscape="http://www.inkscape.org/namespaces/inkscape"
   xmlns:sodipodi="http://sodipodi.sourceforge.net/DTD/sodipodi-0.dtd"
   xmlns="http://www.w3.org/2000/svg"
   xmlns:svg="http://www.w3.org/2000/svg">
  <sodipodi:namedview
     id="namedview15849"
     pagecolor="#ffffff"
     bordercolor="#111111"
     borderopacity="1"
     inkscape:pageshadow="0"
     inkscape:pageopacity="0"
     inkscape:pagecheckerboard="1"
     inkscape:document-units="mm"
     showgrid="false"
     inkscape:zoom="4.0718557"
     inkscape:cx="404.1155"
     inkscape:cy="370.22431"
     inkscape:window-width="1920"
     inkscape:window-height="1001"
     inkscape:window-x="-9"
     inkscape:window-y="-9"
     inkscape:window-maximized="1"
     inkscape:current-layer="layer1" />
  <defs
     id="defs15844" />
  <g
     inkscape:label="Warstwa 1"
     inkscape:groupmode="layer"
     id="layer1">
    <path
       style="fill:none;stroke:#000000;stroke-width:0.264583px;stroke-linecap:butt;stroke-linejoin:miter;stroke-opacity:1"
       d="m 91.663828,74.433786 27.659962,4.640625 c 0,0 0.91904,1.109133 0.88655,2.636131 -0.0325,1.526995 0.22743,3.378885 -0.48734,4.418542 -0.71476,1.039656 -0.64979,1.137123 -3.3464,0.649785 C 113.68,86.29153 94.316382,82.425306 94.316382,82.425306 l -3.053993,-0.519829 z"
       id="path16089" />
    <path
       style="fill:none;stroke:#000000;stroke-width:0.264583px;stroke-linecap:butt;stroke-linejoin:miter;stroke-opacity:1"
       d="m 91.262382,81.905477 c 0,0 0,0 -0.333013,0.333015 -0.333007,0.333018 -0.09258,0.810315 -0.09258,0.810315 l 16.081371,2.963569 c 0,0 4.57171,1.010827 8.84476,1.83787 4.27305,0.827043 3.72169,0.551363 3.72169,0.551363 l 6.042,-2.320314 c 0,0 9.28125,-3.675743 12.56644,-4.824413 3.28517,-1.148667 2.8487,-1.998683 3.30817,-5.008197 0.45947,-3.009516 -1.97571,-4.962252 -1.97571,-4.962252 l -8.01771,-1.539219 -17.8733,-3.285194 -12.4441,3.812294 c 0,0 -8.983289,2.631633 -9.519361,2.761589 -0.536075,0.129958 -0.795986,0.146203 -0.893456,0.649787 -0.09747,0.503584 0.986243,0.748096 0.986243,0.748096 l 27.659964,4.640625 c 0,0 0.90745,1.068264 0.93043,2.791268 0.023,1.723005 -0.0574,3.89399 -0.62029,4.479812 -0.56284,0.585821 -0.73514,0.976369 -2.25139,0.677715 -1.51624,-0.298654 -26.120158,-5.117729 -26.120158,-5.117729 z"
       id="path16091" />
    <path
       style="fill:none;stroke:#000000;stroke-width:0.264583px;stroke-linecap:butt;stroke-linejoin:miter;stroke-opacity:1"
       d="m 112.99772,89.378011 -0.32489,8.284768 -20.208335,-7.73245 c 0,0 -0.682276,-0.584806 -0.714767,-2.111804 -0.03249,-1.526995 -0.06498,-2.176779 0.259916,-3.05399 0.112775,-0.304492 0.337548,-0.583323 0.582979,-0.817621 0.461634,-0.440693 0.468402,-0.472042 0.468402,-0.472042 l 2.810598,0.472084 z"
       id="path17154"
       sodipodi:nodetypes="cccsssccc" />
    <path
       style="fill:none;stroke:#000000;stroke-width:0.264583px;stroke-linecap:butt;stroke-linejoin:miter;stroke-opacity:1"
       d="m 112.99772,89.378011 27.68087,-4.710946 -0.0975,7.440046 -27.90829,5.555666 z"
       id="path17156" />
    <path
       style="fill:none;stroke:#000000;stroke-width:0.264583px;stroke-linecap:butt;stroke-linejoin:miter;stroke-opacity:1"
       d="m 135.79571,82.17582 5.62849,1.654082 c 0,0 0.27773,0.594575 -0.74561,0.837163 -1.02335,0.242589 -19.68923,3.366969 -19.68923,3.366969 z"
       id="path17158" />
    <path
       style="fill:none;stroke:#000000;stroke-width:0.264583px;stroke-linecap:butt;stroke-linejoin:miter;stroke-opacity:1"
       d="M 112.99772,89.378011 118.70351,88.401609 95.856474,83.97923 Z"
       id="path17160" />
    <path
       style="fill:none;stroke:#000000;stroke-width:0.264583px;stroke-linecap:butt;stroke-linejoin:miter;stroke-opacity:1"
       d="M 112.67283,97.662777 92.464495,89.930329 c 0,0 -0.800667,-0.5983 -0.72026,-2.608469 0.08041,-2.010172 0.04611,-2.232433 0.435978,-2.914708 0.389872,-0.682276 0.710243,-0.875424 0.710243,-0.875424 l -1.530599,-0.310434 c 0,0 -0.584806,0.203058 -0.601052,2.054945 -0.01624,1.85189 -0.04061,3.427619 -0.04061,3.427619 0,0 0.194937,1.405162 1.697564,2.046827 1.50263,0.641662 20.273311,8.032972 20.273311,8.032972 l 28.68803,-5.506931 c 0,0 0.37366,-0.324893 -0.21118,-0.747255 l -0.58483,-0.422362 z"
       id="path17162"
       sodipodi:nodetypes="ccssccscsccscc" />
    <path
       style="fill:none;stroke:#000000;stroke-width:0.264583px;stroke-linecap:butt;stroke-linejoin:miter;stroke-opacity:1"
       d="m 140.05728,93.53616 c 0,0 0.91893,0.241221 0.72366,2.423695 -0.19528,2.182471 0.43649,3.813582 -1.44732,4.514275 -1.88382,0.70068 -20.28551,7.9373 -20.28551,7.9373 l -1.95274,-0.0919 -27.002595,-5.32852 c 0,0 -0.519525,-0.44929 -0.0141,-0.90876 0.505415,-0.45946 0.654743,-0.39055 0.654743,-0.39055 l 6.260248,1.11421 21.381034,4.18128 c 0,0 1.23459,-0.92594 1.18586,-3.46011 -0.0487,-2.53416 -0.12995,-4.580984 -1.65695,-4.889633 -1.527,-0.308648 -2.24176,-0.341138 -2.24176,-0.341138 z"
       id="path17277" />
    <path
       style="fill:none;stroke:#000000;stroke-width:0.264583px;stroke-linecap:butt;stroke-linejoin:miter;stroke-opacity:1"
       d="m 95.201731,91.847616 -5.100093,1.194617 c 0,0 -0.643255,0.505415 -0.04595,0.827043 0.59731,0.321627 6.593364,1.171641 6.593364,1.171641 l 8.132578,1.355431 3.29669,0.539875 z"
       id="path17279" />
    <path
       style="fill:none;stroke:#000000;stroke-width:0.264583px;stroke-linecap:butt;stroke-linejoin:miter;stroke-opacity:1"
       d="m 90.742562,94.121448 -0.0092,7.570252 27.641278,5.29549 c 0,0 1.24775,-0.8731 1.2018,-3.07854 -0.046,-2.20545 -0.2527,-3.58385 -0.2527,-3.58385 0,0 -0.19528,-1.160159 -0.91894,-1.458812 -0.72366,-0.298654 -2.74301,-0.56968 -2.74301,-0.56968 l -2.97278,0.487347 -4.61075,-1.847432 z"
       id="path17281" />
    <path
       style="fill:none;stroke:#000000;stroke-width:0.264583px;stroke-linecap:butt;stroke-linejoin:miter;stroke-opacity:1"
       d="m 47.049504,111.60473 c 0,0 -0.13784,3.49196 2.664913,4.82442 2.802755,1.33245 6.29471,2.7568 9.694772,3.03248 3.400063,0.27568 5.100092,-0.13784 5.513612,0.41352 0.413523,0.55137 2.1595,5.0082 2.1595,5.0082 0,0 3.813583,8.13258 5.789295,10.56776 1.97571,2.43518 3.767635,4.06629 3.767635,4.06629 0,0 -1.70003,-3.37708 -1.654082,-5.58253 0.04594,-2.20545 0.344598,-5.85822 0.735147,-7.78798 0.390549,-1.92977 2.595994,-7.81095 2.595994,-7.81095 0,0 -0.321628,-0.94191 -0.482441,-4.34197 -0.160814,-3.40007 -0.459468,-8.13258 -1.723004,-10.33803 -1.263539,-2.20545 -3.262222,-5.444693 -5.352801,-6.271735 -2.090579,-0.827043 -5.490641,-1.539219 -8.40826,-0.827043 -2.917621,0.712174 -5.74335,1.631111 -7.879874,3.285194 -2.136526,1.654084 -4.387918,3.446014 -5.559562,5.674424 -1.171641,2.22842 -1.906791,3.19331 -1.883818,4.64063 0.02297,1.44732 0.02297,1.44732 0.02297,1.44732 z"
       id="path17283" />
    <path
       style="fill:none;stroke:#000000;stroke-width:0.264583px;stroke-linecap:butt;stroke-linejoin:miter;stroke-opacity:1"
       d="m 83.594921,144.21992 c 0,0 -1.072148,2.37171 -1.575732,4.8409 -0.503584,2.46919 -0.860965,5.36073 -0.503584,7.03393 0.357383,1.6732 0.747255,3.59007 2.225516,4.58099 1.478262,0.99092 2.777834,1.18586 6.82275,1.21835 4.044915,0.0325 4.662212,-0.065 5.539422,-0.64979 0.87721,-0.58481 2.030579,-1.64071 2.420451,-2.68036 0.389871,-1.03966 0.860967,-4.17488 0.87721,-6.75778 0.01624,-2.58289 -0.01624,-5.36073 -0.01624,-5.36073 0,0 -4.435687,0.17075 -9.306047,-0.74818 -4.870357,-0.91894 -6.483744,-1.47733 -6.483744,-1.47733 z"
       id="path17285" />
    <path
       style="fill:none;stroke:#000000;stroke-width:0.264583px;stroke-linecap:butt;stroke-linejoin:miter;stroke-opacity:1"
       d="m 126.19284,146.08779 0.093,9.99072 c 0,0 1.13712,4.5485 2.79407,5.10081 1.65696,0.55232 5.19829,1.03966 8.15481,0.77975 2.95653,-0.25992 5.1658,-1.39704 5.7506,-2.79408 0.58481,-1.39704 1.26709,-4.8734 1.13713,-6.40039 -0.12996,-1.527 -0.42236,-4.15863 -1.33206,-6.56284 -0.9097,-2.4042 -1.33206,-3.21644 -1.33206,-3.21644 0,0 -1.00717,1.20211 -5.10082,1.91687 -4.09365,0.71477 -6.82275,1.10464 -10.16467,1.1856 z"
       id="path17287" />
    <path
       style="fill:none;stroke:#000000;stroke-width:0.264583px;stroke-linecap:butt;stroke-linejoin:miter;stroke-opacity:1"
       d="m 147.04649,129.69721 0.24367,4.46728 c 0,0 -0.0325,1.44577 -0.40612,2.85905 -0.37148,1.40515 -0.35738,1.34831 -0.35738,1.34831 0,0 2.27425,-0.14621 4.8409,0.51983 2.56665,0.66603 4.77592,1.54324 6.20545,1.33206 1.42953,-0.21118 1.86814,-0.21118 2.03058,-0.95844 0.16245,-0.74725 -0.0487,-1.78691 -0.4386,-2.33923 -0.38988,-0.55231 -1.55949,-2.22551 -2.69661,-3.10272 -1.13713,-0.87721 -2.33159,-1.74489 -3.47636,-2.53416 -1.26855,-0.87461 -2.06307,-1.36456 -3.68753,-1.55949 -1.62446,-0.19494 -2.258,-0.0325 -2.258,-0.0325 z"
       id="path17289"
       sodipodi:nodetypes="ccscssssssscc" />
    <path
       style="fill:none;stroke:#000000;stroke-width:0.264583px;stroke-linecap:butt;stroke-linejoin:miter;stroke-opacity:1"
       d="m 78.31629,118.33594 c 0,0 2.224638,-5.24075 5.408586,-8.81457 3.183951,-3.57383 4.256098,-4.5485 4.418544,-4.61348 0.162446,-0.065 1.949355,-1.91688 1.949355,-1.91688 l 27.002595,5.32852 1.95274,0.0919 13.29011,-5.20347 c 0,0 5.04266,3.84804 7.34,7.43189 2.29734,3.58385 5.23793,7.8569 6.11092,12.54347 0.87299,4.68657 1.25735,6.51389 1.25735,6.51389 l 0.24367,4.46728 -0.7635,4.20736 c 0,0 -0.6686,1.55907 -1.81727,2.43206 -1.14867,0.87299 -1.25172,1.3565 -2.25139,1.76895 -0.99967,0.41246 -0.99967,0.41246 -0.99967,0.41246 0,0 -1.1828,0.96595 -2.51526,1.29906 -1.33246,0.33312 -4.78995,1.0338 -5.99606,1.19462 -1.2061,0.16081 -4.6636,0.63177 -5.70888,0.62028 -1.04529,-0.0115 -20.0235,0.29742 -20.0235,0.29742 l -7.829916,0.0487 c 0,0 -4.093652,0.12996 -6.838998,-0.34113 -2.745343,-0.4711 -7.505022,-1.33206 -8.950795,-1.88438 -1.445774,-0.55232 -4.38267,-1.64706 -5.485392,-2.95654 -1.102723,-1.30948 -1.470298,-1.74598 -1.470298,-1.74598 0,0 -0.804069,-1.65408 -1.079749,-2.59599 -0.275679,-0.94191 -0.585821,-1.97571 -0.562848,-2.91762 0.02297,-0.94191 0.298654,-4.90482 0.402035,-5.75484 0.10338,-0.85001 0.5169,-2.9291 0.964882,-4.30751 0.447982,-1.3784 1.952739,-5.6055 1.952739,-5.6055 z"
       id="path17917" />
    <path
       style="fill:none;stroke:#000000;stroke-width:0.264583px;stroke-linecap:butt;stroke-linejoin:miter;stroke-opacity:1"
       d="m 97.045482,133.10858 c 0,0 -0.324892,-3.54133 0.584806,-9.03202 0.909701,-5.49068 1.429528,-9.29193 1.85189,-11.30627 0.42236,-2.01433 0.877212,-5.03583 -1.267081,-5.1333 -2.144295,-0.0975 -5.00335,-0.25992 -7.472535,1.72193 -2.469186,1.98185 -5.133308,4.02867 -6.725282,7.50502 -1.591974,3.47636 -3.248927,8.70713 -3.281418,11.72863 -0.03249,3.02151 0.162446,5.26327 2.306741,6.66031 2.144292,1.39704 2.664121,1.46202 7.18013,1.55948 4.516011,0.0975 4.353563,0.19494 4.353563,0.19494 0,0 1.754423,0.16244 2.144294,-1.88438 0.389871,-2.04683 0.324892,-2.01434 0.324892,-2.01434 z"
       id="path17919" />
    <path
       style="fill:none;stroke:#000000;stroke-width:0.264583px;stroke-linecap:butt;stroke-linejoin:miter;stroke-opacity:1"
       d="m 107.01969,139.7364 c 0,0 4.51601,1.10463 7.31009,0.25991 2.79408,-0.84472 4.61348,-1.8194 5.52318,-4.19112 0.9097,-2.37171 1.35465,-4.78794 1.14789,-8.41774 -0.20676,-3.62979 -0.82704,-10.68262 -1.76895,-13.46241 -0.94191,-2.77977 -2.13653,-5.60551 -2.13653,-5.60551 l -10.62519,-2.0676 c 0,0 -2.12504,3.00952 -2.90613,6.08795 -0.7811,3.07844 -1.4703,6.22579 -1.8149,8.43124 -0.3446,2.20544 -1.1257,5.72037 -0.57434,9.21233 0.55137,3.49195 0.52839,5.55956 2.13653,7.25959 1.60814,1.70003 3.70835,2.49336 3.70835,2.49336 z"
       id="path17921" />
    <path
       style="fill:none;stroke:#000000;stroke-width:0.264583px;stroke-linecap:butt;stroke-linejoin:miter;stroke-opacity:1"
       d="m 127.97528,107.57201 c 0,0 3.44386,0.19493 5.39322,2.17678 1.94936,1.98185 3.67129,3.6388 4.87339,6.75777 1.2021,3.11897 2.66412,6.0755 3.08648,9.97421 0.42236,3.89871 1.13713,6.59532 -1.00716,8.08983 -2.1443,1.49451 -2.63164,1.98185 -6.14048,2.30674 -3.50884,0.32489 -6.17296,0.25991 -6.17296,0.25991 0,0 -1.03966,0.16245 -1.91687,-1.81939 -0.87721,-1.98185 -0.77974,-3.11898 -0.81223,-6.53035 -0.0325,-3.41138 -0.29241,-7.2776 -0.6173,-9.90923 -0.32489,-2.63163 -0.97468,-6.10799 -0.6173,-7.86241 0.35739,-1.75442 0.71477,-2.66412 1.55949,-3.08648 0.84472,-0.42236 2.37172,-0.35738 2.37172,-0.35738 z"
       id="path17923" />
    <path
       style="fill:none;stroke:#000000;stroke-width:0.264583px;stroke-linecap:butt;stroke-linejoin:miter;stroke-opacity:1"
       d="m 120.33462,78.385209 c 0,0 2.02166,2.43518 1.42435,4.778465 -0.59731,2.343287 -1.10272,3.813585 -1.10272,3.813585 l 7.48932,-2.848703 c 0,0 0.7811,-1.378402 0.55137,-3.491955 -0.22974,-2.113552 -1.24057,-4.41089 -1.24057,-4.41089 z"
       id="path17925" />
    <path
       style="fill:none;stroke:#000000;stroke-width:0.264583px;stroke-linecap:butt;stroke-linejoin:miter;stroke-opacity:1"
       d="m 119.69137,98.418006 6.89201,-2.159498 c 0,0 1.16117,1.219221 1.37841,4.135212 0.23033,3.09173 -0.96488,3.99737 -0.96488,3.99737 l -7.10504,2.84312 c 0,0 0.83372,-2.4233 0.98296,-3.51887 0.125,-0.9176 -0.362,-3.2701 -0.91894,-4.227101 -0.47588,-0.817707 -0.26452,-1.070233 -0.26452,-1.070233 z"
       id="path17927"
       sodipodi:nodetypes="ccsccssc" />
    <circle
       style="fill:#008a00;stroke:#000000;stroke-width:0.264583"
       id="path18850"
       cx="62.717354"
       cy="105.63165"
       r="3.239248" />
  </g>
</svg>
