<?xml version="1.0" encoding="UTF-8" standalone="no"?>
<!-- Created with Inkscape (http://www.inkscape.org/) -->

<svg
   width="469.07294"
   height="385.44022"
   viewBox="0 0 124.10893 101.98106"
   version="1.1"
   id="svg5"
   inkscape:version="1.1.2 (b8e25be833, 2022-02-05)"
   sodipodi:docname="logo.svg"
   xmlns:inkscape="http://www.inkscape.org/namespaces/inkscape"
   xmlns:sodipodi="http://sodipodi.sourceforge.net/DTD/sodipodi-0.dtd"
   xmlns="http://www.w3.org/2000/svg"
   xmlns:svg="http://www.w3.org/2000/svg">
  <sodipodi:namedview
     id="namedview7"
     pagecolor="#ffffff"
     bordercolor="#111111"
     borderopacity="1"
     inkscape:pageshadow="0"
     inkscape:pageopacity="1"
     inkscape:pagecheckerboard="1"
     inkscape:document-units="mm"
     showgrid="false"
     units="px"
     inkscape:zoom="2"
     inkscape:cx="221.75"
     inkscape:cy="189.25"
     inkscape:window-width="1920"
     inkscape:window-height="1001"
     inkscape:window-x="-9"
     inkscape:window-y="-9"
     inkscape:window-maximized="1"
     inkscape:current-layer="layer1"
     fit-margin-top="0"
     fit-margin-left="0"
     fit-margin-right="0"
     fit-margin-bottom="0" />
  <defs
     id="defs2" />
  <g
     inkscape:label="Warstwa 1"
     inkscape:groupmode="layer"
     id="layer1"
     transform="translate(-0.27916949,-0.17169345)"
     sodipodi:insensitive="true"
     style="display:none">
    <path
       style="fill:none;stroke:#000000;stroke-width:0.264583px;stroke-linecap:butt;stroke-linejoin:miter;stroke-opacity:1"
       d="m 0.52787587,46.305205 c 0,0 0.22066072,-1.36467 0.77823493,-2.267906 1.0780416,-1.746362 1.4096095,-2.402749 2.5222143,-3.703197 2.2499699,-2.629837 3.7037778,-3.638798 3.7037778,-3.638798 0,0 1.169614,-1.039657 3.0539931,-1.949358 1.884378,-0.909698 1.884378,-1.299569 5.588156,-2.144291 3.703778,-0.844722 6.631755,-0.446966 6.631755,-0.446966 0,0 2.14035,-0.0079 5.519235,2.136409 3.378886,2.144292 5.259999,8.045517 5.259999,8.045517 0,0 0.263178,1.116459 0.458116,3.32573 0.194934,2.209271 0.178343,6.092734 0.168019,7.342579 -0.01115,1.349458 0.0571,2.022218 0.0571,2.022218 0,0 0.294714,1.486623 0.879519,0.317008 0.584806,-1.169612 1.123468,-2.965543 2.144292,-4.613476 1.395407,-2.252629 2.668062,-3.80288 3.508843,-4.808413 0.796318,-0.952357 1.500612,-1.626364 2.144292,-2.358261 0.75677,-0.860487 1.976272,-1.818724 2.989014,-2.645089 0.907611,-0.740582 1.494506,-1.169615 1.494506,-1.169615 l 0.714764,-0.389871 -0.431875,-0.496857 -0.01509,-0.649784 v 0 l 0.706878,-0.607779 0.129956,-7.927385 c 0,0 -1.559486,-0.03249 -0.909699,-0.747255 0.649785,-0.714764 3.508841,-1.234591 3.508841,-1.234591 l 1.591977,-0.552317 -3.24893,-1.250837 -0.87721,-1.023414 -0.162446,-1.42953 0.03249,-3.671287 c 0,0 -0.06498,-1.120882 0.487341,-1.478262 0.552315,-0.357384 -0.55232,-0.406116 -0.55232,-0.406116 0,0 -0.129958,-0.649785 0.877211,-1.364551 1.007168,-0.714764 0.389871,-7.8624048 0.389871,-7.8624048 0,0 -2.27425,-0.714764 -0.227425,-1.494507 2.046824,-0.779743 9.616826,-2.664121 9.616826,-2.664121 L 73.290407,0.30730927 89.40509,3.1013882 l 12.1185,1.916867 c 2.18126,1.3933172 2.17913,3.8049511 2.1443,4.808414 -0.0975,2.4042058 -0.0975,4.0611598 -0.0975,4.0611598 l -0.25992,0.87721 c 0,0 -0.25991,0.292404 -1.10463,0.45485 -0.84472,0.162447 -4.191121,1.429529 -4.191121,1.429529 0,0 -0.2924,0.584808 1.10464,0.649784 1.397041,0.06498 4.710941,1.202106 4.710941,1.202106 0,0 0.19494,0.422359 -0.45485,1.29957 -0.64978,0.87721 -0.16244,5.523177 -0.16244,5.523177 l 0.0975,2.30674 c 0,0 1.00717,0.03249 0.87721,0.747252 -0.12995,0.714764 -0.97467,0.552318 -1.52699,0.584809 -0.55232,0.03249 0.58481,-0.09747 0.64978,2.241759 0.065,2.339229 -0.19493,3.736268 -0.19493,3.736268 0,0 0.065,1.072145 -2.76159,2.014334 -2.826571,0.942189 -6.530346,2.27425 -6.530346,2.27425 l 4.638085,3.967635 c 0,0 0.92903,0.732864 2.639511,2.855114 1.45278,1.802521 1.87817,2.589856 3.24893,4.873393 1.36446,2.273038 2.07864,3.757609 3.3464,6.725282 1.2851,3.008274 1.63465,4.915398 1.63465,4.915398 0,0 0.31899,3.821381 0.70458,4.409024 0.34109,0.519829 3.34599,0.788099 4.15862,1.055904 0.60544,0.199523 1.66703,0.527196 2.61148,1.059178 0.66355,0.373759 1.40579,0.75871 2.16444,1.442494 0.633,0.570537 1.71799,1.482304 2.44716,2.230737 0.66333,0.680852 1.4647,1.749435 1.83817,2.38322 1.71241,2.906006 1.27034,3.946971 -1.68618,3.329674 -2.95652,-0.617297 -5.36864,-1.164695 -6.3679,-1.250838 -0.94219,-0.08122 -5.23077,-0.08122 -5.49069,-0.08122 -0.21452,0 -1.33711,1.592531 -1.82426,2.081444 -0.23368,0.234525 -0.50587,0.480777 -0.77488,0.680145 -1.76649,1.309175 -3.0215,2.241759 -3.0215,2.241759 0,0 1.59197,2.501676 2.1118,4.775925 0.35741,2.339229 0.87721,3.931196 0.58481,6.822746 -0.29241,2.89155 -0.50647,4.39491 -1.16962,5.91305 -0.68323,1.564099 -0.81223,1.916869 -3.11897,2.144289 -2.30674,0.22743 -10.66994,-0.0673 -10.66994,-0.0673 0,0 -2.634898,-0.29202 -3.527875,-3.344089 -0.574186,-1.96249 -1.007166,-3.76876 -0.974678,-6.49786 0.03249,-2.729095 -0.129958,-6.530342 -0.129958,-6.530342 l -29.142885,0.129958 -1.636686,11.160544 c 0,0 -0.189319,1.05727 -1.059927,3.654569 -0.71206,2.1243 -5.987822,1.67041 -5.987822,1.67041 l -5.99678,-0.16082 c 0,0 -3.310641,-0.34395 -4.25283,-3.885249 -0.942189,-3.54134 -0.719385,-4.06789 -0.178691,-7.4238 0.110342,-0.684858 0.329647,-1.49855 0.466664,-2.19173 0.532913,-2.695993 1.556708,-5.114418 1.556708,-5.114418 0,0 -4.12614,-0.990924 -5.750602,-2.615387 -1.624465,-1.624464 -3.703778,-3.18395 -5.490689,-5.750604 -1.786911,-2.566652 -3.963691,-4.808414 -5.068329,-7.60249 -1.104635,-2.79408 -2.469184,-5.133308 -3.281416,-7.440046 -0.812232,-2.306738 -1.526996,-3.216439 -1.526996,-3.216439 l -7.505024,-0.194935 c 0,0 -1.234593,0.01625 -3.5738217,-0.763499 C 6.4274675,54.840567 2.5618559,52.690327 1.9439469,51.949022 0.74893079,50.515364 0.33087219,49.779567 0.41695055,48.261487 Z"
       id="path273"
       sodipodi:nodetypes="csscsscscsscssssscccccccsccccccscscscccccccscscsccssccsccssscsssssssssssccssscsscccsccssscssssccsssc" />
    <path
       style="fill:none;stroke:#000000;stroke-width:0.264583px;stroke-linecap:butt;stroke-linejoin:miter;stroke-opacity:1"
       d="m 37.630413,68.185025 c 0,0 -0.735147,-4.824413 2.29734,-11.027228 3.032488,-6.202817 4.989064,-8.191606 7.8569,-10.429919 2.825727,-2.205448 7.540716,-3.102377 9.00557,-2.756808 0.88626,0.209075 2.343285,1.14867 1.102723,7.213645 -1.240563,6.064975 -1.964565,8.913675 -2.205445,13.27862 -0.240527,4.358555 -0.04595,7.948792 -0.689203,9.28125 -0.643255,1.332457 -1.654085,1.929765 -4.502785,1.83787 -2.8487,-0.09189 -7.71906,-0.55136 -7.71906,-0.55136 0,0 -2.894647,-0.13784 -4.043315,-2.29734 -1.14867,-2.159498 -1.102725,-4.54873 -1.102725,-4.54873 z"
       id="path1400"
       sodipodi:nodetypes="cssssssscsc" />
    <path
       style="fill:none;stroke:#000000;stroke-width:0.264583px;stroke-linecap:butt;stroke-linejoin:miter;stroke-opacity:1"
       d="m 105.01396,66.071472 c 0,0 0.85721,3.938362 -1.90612,6.813581 -1.84029,1.91481 -2.85196,2.283882 -7.768268,2.467669 -4.916305,0.183788 -5.111952,0.310595 -7.07254,-0.580585 -1.010827,-0.459468 -1.455816,-5.198221 -1.654084,-8.178528 -0.283564,-4.262462 -0.413487,-7.139825 -1.06004,-11.135844 -0.452508,-2.796722 -0.689203,-7.71906 -0.689203,-7.71906 0,0 0.146303,-2.912303 2.618967,-3.629795 0.916316,-0.265887 1.999388,-0.288834 3.128196,0.09517 1.537747,0.523124 3.27035,1.253723 4.058536,1.818825 2.164375,1.551782 3.599445,2.399464 6.154566,7.334762 2.45168,4.735513 3.09907,6.619775 3.74072,9.026354 0.44684,1.675914 0.44927,3.687451 0.44927,3.687451 z"
       id="path1736"
       sodipodi:nodetypes="cssssscsssssc" />
    <path
       style="fill:none;stroke:#000000;stroke-width:0.264583px;stroke-linecap:butt;stroke-linejoin:miter;stroke-opacity:1"
       d="m 62.339591,75.560158 c 0,0 2.443063,1.803471 6.578273,1.803471 2.154204,0 4.486746,0.01522 6.702946,-0.106935 1.854103,-0.102194 3.177125,-0.554147 3.91307,-1.260717 1.54182,-1.480279 1.791923,-1.837872 1.883818,-7.30554 0.09189,-5.467665 0.09189,-9.097462 -0.551363,-12.451577 C 80.22308,52.884745 78.79873,47.600865 77.971688,46.130567 77.144648,44.660273 76.731125,44.38459 76.731125,44.38459 L 65.933633,42.54672 c 0,0 -3.032488,3.078435 -4.227105,9.327198 -1.194618,6.248759 -2.081024,14.261059 -1.70003,17.965189 0.413519,4.020344 2.333093,5.721051 2.333093,5.721051 z"
       id="path1738"
       sodipodi:nodetypes="cssssssccssc" />
    <path
       style="fill:none;stroke:#000000;stroke-width:0.264583px;stroke-linecap:butt;stroke-linejoin:miter;stroke-opacity:1"
       d="m 34.781713,55.779392 c 0,0 -1.672079,4.268609 -2.205445,6.110923 -0.665134,2.297458 -1.14867,6.386602 -1.14867,6.386602 0,0 -0.390551,4.27305 0.551363,7.673113 0.621855,2.244735 1.194615,2.664912 1.194615,2.664912"
       id="path2095"
       sodipodi:nodetypes="cscsc" />
    <path
       style="fill:none;stroke:#000000;stroke-width:0.264583px;stroke-linecap:butt;stroke-linejoin:miter;stroke-opacity:1"
       d="m 40.96358,83.203693 c -0.06181,-0.01397 2.121399,0.768801 3.489931,1.053188 0,0 0.582065,0.215412 5.812267,0.859532 4.78365,0.589125 7.522547,0.510079 7.787166,0.37777 v 0 0"
       id="path2097"
       sodipodi:nodetypes="ccsccc" />
    <path
       style="fill:none;stroke:#000000;stroke-width:0.264583px;stroke-linecap:butt;stroke-linejoin:miter;stroke-opacity:1"
       d="m 87.195827,85.364225 c 0,0 1.900616,0.16247 7.115146,-0.714743 5.214526,-0.87721 8.414717,-2.014331 9.096997,-2.258005 0.68229,-0.24367 0.68229,-0.24367 0.68229,-0.24367"
       id="path2099" />
    <path
       style="fill:none;stroke:#000000;stroke-width:0.264583px;stroke-linecap:butt;stroke-linejoin:miter;stroke-opacity:1"
       d="m 109.98705,66.812868 c 0.17579,2.01808 0.23949,3.19395 0.1787,5.831826 0,0 -0.17429,2.350778 -0.3249,2.97277 -0.46543,1.922101 -0.42881,1.818325 -0.42236,1.8194 h -0.0162"
       id="path2101"
       sodipodi:nodetypes="ccscc" />
    <path
       style="fill:none;stroke:#000000;stroke-width:0.264583px;stroke-linecap:butt;stroke-linejoin:miter;stroke-opacity:1"
       d="M 98.014719,16.649418 80.47054,23.439676 78.228778,23.407188 48.403619,17.884011 v 0 0"
       id="path3127" />
    <path
       style="fill:none;stroke:#000000;stroke-width:0.264583px;stroke-linecap:butt;stroke-linejoin:miter;stroke-opacity:1"
       d="m 49.670701,8.6570552 12.638331,1.7869098 8.869571,1.397039 6.887729,1.072146 1.591974,0.45485 c 0,0 1.267081,1.169615 1.234593,3.703777 -0.03249,2.534166 -0.45485,5.295755 -1.429528,5.100818 -0.97468,-0.194935 -6.595324,-0.974678 -6.595324,-0.974678 L 66.922508,20.12577 59.70989,18.793709 48.988425,16.844355"
       id="path3129" />
    <path
       style="fill:none;stroke:#000000;stroke-width:0.264583px;stroke-linecap:butt;stroke-linejoin:miter;stroke-opacity:1"
       d="m 81.440671,22.100403 8.109606,-3.239249 c 0,0 0.344602,-0.528388 0.390549,-2.57302 0.04595,-2.044632 -0.620281,-5.306853 -1.171644,-5.605508 -0.551362,-0.298654 -7.856899,2.182473 -7.856899,2.182473 0,0 1.28651,1.171643 1.217588,3.514928 -0.06892,2.343287 -0.13784,4.548732 -0.758121,5.214961 -0.620281,0.666229 0.06892,0.505415 0.06892,0.505415 z"
       id="path3131" />
    <path
       style="fill:none;stroke:#000000;stroke-width:0.264583px;stroke-linecap:butt;stroke-linejoin:miter;stroke-opacity:1"
       d="M 103.47215,19.596302 80.47054,23.439676"
       id="path3133" />
    <path
       style="fill:none;stroke:#000000;stroke-width:0.264583px;stroke-linecap:butt;stroke-linejoin:miter;stroke-opacity:1"
       d="m 103.31051,27.630795 -30.94433,5.657649 0.321628,-8.775837 7.782732,-1.072931"
       id="path3135" />
    <path
       style="fill:none;stroke:#000000;stroke-width:0.264583px;stroke-linecap:butt;stroke-linejoin:miter;stroke-opacity:1"
       d="M 72.36618,33.288444 50.320486,24.739247 c 0,0 -0.129959,0.682277 -0.06498,-1.884377 0.06498,-2.566654 -0.584806,-4.418541 0.357383,-4.516008 0.942189,-0.09747 8.674637,1.559483 8.674637,1.559483 l 13.400281,4.614262"
       id="path3137"
       sodipodi:nodetypes="ccsscc" />
    <path
       style="fill:none;stroke:#000000;stroke-width:0.264583px;stroke-linecap:butt;stroke-linejoin:miter;stroke-opacity:1"
       d="M 52.724694,27.143457 71.990837,34.5835 74.07015,34.48603 102.49827,29.06032"
       id="path3139" />
    <path
       style="fill:none;stroke:#000000;stroke-width:0.264583px;stroke-linecap:butt;stroke-linejoin:miter;stroke-opacity:1"
       d="M 93.823642,39.229467 80.275602,44.525221 76.731125,44.38459"
       id="path3141" />
    <path
       style="fill:none;stroke:#000000;stroke-width:0.264583px;stroke-linecap:butt;stroke-linejoin:miter;stroke-opacity:1"
       d="M 65.933633,42.54672 48.143703,39.359425"
       id="path3143" />
    <path
       style="fill:none;stroke:#000000;stroke-width:0.264583px;stroke-linecap:butt;stroke-linejoin:miter;stroke-opacity:1"
       d="M 48.403619,37.605005 78.982518,42.8224 c 0,0 1.194617,-0.597307 1.194617,-2.756807 0,-2.159498 -0.239183,-4.458869 -1.364467,-5.510826 -0.804272,-0.751863 -3.126418,-0.207707 -2.044632,-0.59731"
       id="path3145"
       sodipodi:nodetypes="ccssc" />
    <path
       style="fill:none;stroke:#000000;stroke-width:0.264583px;stroke-linecap:butt;stroke-linejoin:miter;stroke-opacity:1"
       d="m 48.533575,29.67762 18.258977,2.891546"
       id="path3773" />
    <path
       style="fill:none;stroke:#000000;stroke-width:0.264583px;stroke-linecap:butt;stroke-linejoin:miter;stroke-opacity:1"
       d="m 80.308093,34.291098 7.472535,-2.371719 c 0,0 1.526995,1.754423 1.33206,4.353565 -0.194937,2.599142 -0.552317,4.321074 -0.552317,4.321074 l -8.187301,2.924035 c 0,0 1.234593,-2.176782 1.267084,-4.093649 0.03249,-1.916869 -0.51983,-3.768757 -0.97468,-4.353565 -0.454851,-0.584806 -0.357381,-0.779741 -0.357381,-0.779741 z"
       id="path3775" />
    <ellipse
       style="fill:#000000;stroke-width:0.264583"
       id="path3831"
       cx="17.668758"
       cy="41.893589"
       rx="3.2489281"
       ry="3.1839495" />
    <path
       style="fill:#000000;fill-opacity:0;stroke-width:0.992383"
       d="m 167.7127,383.16458 c -4.63939,-0.37652 -9.3788,-1.20693 -10.53202,-1.84535 -8.89659,-4.92513 -13.11482,-18.73593 -10.69489,-35.01592 1.92685,-12.96283 6.64811,-30.73923 8.15759,-30.71483 0.36549,0.006 2.8974,0.70076 5.62645,1.54411 7.68646,2.37531 29.38227,5.37231 43.89365,6.06333 12.66547,0.60312 13.11376,0.69881 12.67661,2.70592 -0.24925,1.14438 -1.38696,8.77927 -2.52824,16.96643 -3.98561,28.5913 -6.20303,36.26772 -11.24447,38.92696 -3.53365,1.86391 -20.94938,2.53845 -35.35468,1.36935 z"
       id="path15712"
       transform="matrix(0.26458333,0,0,0.26458333,0.27916949,0.17169345)" />
  </g>
  <g
     inkscape:label="Warstwa 1 kopia"
     inkscape:groupmode="layer"
     id="g13809"
     transform="translate(-0.27916949,-0.17169345)"
     style="display:inline">
    <path
       style="fill:none;stroke:#000000;stroke-width:0.264583px;stroke-linecap:butt;stroke-linejoin:miter;stroke-opacity:1"
       d="m 0.52787587,46.305205 c 0,0 0.22066072,-1.36467 0.77823493,-2.267906 1.0780416,-1.746362 1.4096095,-2.402749 2.5222143,-3.703197 2.2499699,-2.629837 3.7037778,-3.638798 3.7037778,-3.638798 0,0 1.169614,-1.039657 3.0539931,-1.949358 1.884378,-0.909698 1.884378,-1.299569 5.588156,-2.144291 3.703778,-0.844722 6.631755,-0.446966 6.631755,-0.446966 0,0 2.14035,-0.0079 5.519235,2.136409 3.378886,2.144292 5.259999,8.045517 5.259999,8.045517 0,0 0.263178,1.116459 0.458116,3.32573 0.194934,2.209271 0.178343,6.092734 0.168019,7.342579 -0.01115,1.349458 0.0571,2.022218 0.0571,2.022218 0,0 0.294714,1.486623 0.879519,0.317008 0.584806,-1.169612 1.123468,-2.965543 2.144292,-4.613476 1.395407,-2.252629 2.668062,-3.80288 3.508843,-4.808413 0.796318,-0.952357 1.500612,-1.626364 2.144292,-2.358261 0.75677,-0.860487 1.976272,-1.818724 2.989014,-2.645089 0.907611,-0.740582 1.494506,-1.169615 1.494506,-1.169615 l 0.714764,-0.389871 -0.431875,-0.496857 -0.01509,-0.649784 v 0 l 0.706878,-0.607779 0.129956,-7.927385 c 0,0 -1.559486,-0.03249 -0.909699,-0.747255 0.649785,-0.714764 3.508841,-1.234591 3.508841,-1.234591 l 1.591977,-0.552317 -3.24893,-1.250837 -0.87721,-1.023414 -0.162446,-1.42953 0.03249,-3.671287 c 0,0 -0.06498,-1.120882 0.487341,-1.478262 0.552315,-0.357384 -0.55232,-0.406116 -0.55232,-0.406116 0,0 -0.129958,-0.649785 0.877211,-1.364551 1.007168,-0.714764 0.389871,-7.8624048 0.389871,-7.8624048 0,0 -2.27425,-0.714764 -0.227425,-1.494507 2.046824,-0.779743 9.616826,-2.664121 9.616826,-2.664121 L 73.290407,0.30730927 89.40509,3.1013882 l 12.1185,1.916867 c 2.18126,1.3933172 2.17913,3.8049511 2.1443,4.808414 -0.0975,2.4042058 -0.0975,4.0611598 -0.0975,4.0611598 l -0.25992,0.87721 c 0,0 -0.25991,0.292404 -1.10463,0.45485 -0.84472,0.162447 -4.191121,1.429529 -4.191121,1.429529 0,0 -0.2924,0.584808 1.10464,0.649784 1.397041,0.06498 4.710941,1.202106 4.710941,1.202106 0,0 0.19494,0.422359 -0.45485,1.29957 -0.64978,0.87721 -0.16244,5.523177 -0.16244,5.523177 l 0.0975,2.30674 c 0,0 1.00717,0.03249 0.87721,0.747252 -0.12995,0.714764 -0.97467,0.552318 -1.52699,0.584809 -0.55232,0.03249 0.58481,-0.09747 0.64978,2.241759 0.065,2.339229 -0.19493,3.736268 -0.19493,3.736268 0,0 0.065,1.072145 -2.76159,2.014334 -2.826571,0.942189 -6.530346,2.27425 -6.530346,2.27425 l 4.638085,3.967635 c 0,0 0.92903,0.732864 2.639511,2.855114 1.45278,1.802521 1.87817,2.589856 3.24893,4.873393 1.36446,2.273038 2.07864,3.757609 3.3464,6.725282 1.2851,3.008274 1.63465,4.915398 1.63465,4.915398 0,0 0.31899,3.821381 0.70458,4.409024 0.34109,0.519829 3.34599,0.788099 4.15862,1.055904 0.60544,0.199523 1.66703,0.527196 2.61148,1.059178 0.66355,0.373759 1.40579,0.75871 2.16444,1.442494 0.633,0.570537 1.71799,1.482304 2.44716,2.230737 0.66333,0.680852 1.4647,1.749435 1.83817,2.38322 1.71241,2.906006 1.27034,3.946971 -1.68618,3.329674 -2.95652,-0.617297 -5.36864,-1.164695 -6.3679,-1.250838 -0.94219,-0.08122 -5.23077,-0.08122 -5.49069,-0.08122 -0.21452,0 -1.33711,1.592531 -1.82426,2.081444 -0.23368,0.234525 -0.50587,0.480777 -0.77488,0.680145 -1.76649,1.309175 -3.0215,2.241759 -3.0215,2.241759 0,0 1.59197,2.501676 2.1118,4.775925 0.35741,2.339229 0.87721,3.931196 0.58481,6.822746 -0.29241,2.89155 -0.50647,4.39491 -1.16962,5.91305 -0.68323,1.564099 -0.81223,1.916869 -3.11897,2.144289 -2.30674,0.22743 -10.66994,-0.0673 -10.66994,-0.0673 0,0 -2.634898,-0.29202 -3.527875,-3.344089 -0.574186,-1.96249 -1.007166,-3.76876 -0.974678,-6.49786 0.03249,-2.729095 -0.129958,-6.530342 -0.129958,-6.530342 l -29.142885,0.129958 -1.636686,11.160544 c 0,0 -0.189319,1.05727 -1.059927,3.654569 -0.71206,2.1243 -5.987822,1.67041 -5.987822,1.67041 l -5.99678,-0.16082 c 0,0 -3.310641,-0.34395 -4.25283,-3.885249 -0.942189,-3.54134 -0.719385,-4.06789 -0.178691,-7.4238 0.110342,-0.684858 0.329647,-1.49855 0.466664,-2.19173 0.532913,-2.695993 1.556708,-5.114418 1.556708,-5.114418 0,0 -4.12614,-0.990924 -5.750602,-2.615387 -1.624465,-1.624464 -3.703778,-3.18395 -5.490689,-5.750604 -1.786911,-2.566652 -3.963691,-4.808414 -5.068329,-7.60249 -1.104635,-2.79408 -2.469184,-5.133308 -3.281416,-7.440046 -0.812232,-2.306738 -1.526996,-3.216439 -1.526996,-3.216439 l -7.505024,-0.194935 c 0,0 -1.234593,0.01625 -3.5738217,-0.763499 C 6.4274675,54.840567 2.5618559,52.690327 1.9439469,51.949022 0.74893079,50.515364 0.33087219,49.779567 0.41695055,48.261487 Z"
       id="path13765"
       sodipodi:nodetypes="csscsscscsscssssscccccccsccccccscscscccccccscscsccssccsccssscsssssssssssccssscsscccsccssscssssccsssc" />
    <path
       style="color:#000000;fill:#000000;-inkscape-stroke:none"
       d="m 56.820312,43.841797 c -0.788191,-0.18594 -2.328878,-0.03627 -4.05664,0.423828 -1.727763,0.460097 -3.626408,1.238093 -5.060547,2.357422 -2.874789,2.24374 -4.857085,4.263604 -7.894531,10.476562 C 36.760517,63.334313 37.5,68.205078 37.5,68.205078 c -7.07e-4,0.0377 -0.04194,2.410682 1.117187,4.589844 1.18865,2.234665 4.135601,2.366708 4.146485,2.367187 0,0 4.870472,0.460543 7.728515,0.552735 1.434085,0.04626 2.416199,-0.07912 3.134766,-0.396485 0.718567,-0.317366 1.160177,-0.831934 1.490234,-1.515625 0.344121,-0.712823 0.447802,-1.946111 0.509766,-3.558593 0.06197,-1.612483 0.07331,-3.598118 0.193359,-5.773438 0.240251,-4.35354 0.962168,-7.192864 2.203125,-13.259766 0.622587,-3.04376 0.573852,-4.812734 0.242188,-5.86914 -0.331664,-1.056406 -0.974848,-1.389014 -1.445313,-1.5 z m -0.06055,0.257812 c 0.415794,0.09809 0.945633,0.340364 1.253906,1.322266 0.308273,0.981902 0.367974,2.71512 -0.25,5.736328 -1.240167,6.063037 -1.967476,8.920534 -2.208985,13.296875 -0.120481,2.183231 -0.131667,4.173911 -0.193359,5.779297 -0.06169,1.605386 -0.18329,2.833492 -0.482422,3.453125 -0.313197,0.648765 -0.699539,1.097245 -1.359375,1.388672 -0.659835,0.291427 -1.604918,0.420633 -3.019531,0.375 -2.839351,-0.09159 -7.710938,-0.552734 -7.710938,-0.552735 h -0.0039 -0.002 c 0,0 -2.827104,-0.146357 -3.933594,-2.226562 -1.128983,-2.122487 -1.08789,-4.484375 -1.08789,-4.484375 l 0.002,-0.01172 -0.002,-0.0098 c 0,0 -0.731735,-4.778305 2.285156,-10.949219 3.027524,-6.192663 4.957482,-8.151884 7.818359,-10.384766 1.391586,-1.086116 3.264423,-1.85721 4.966797,-2.310547 1.702374,-0.453336 3.251074,-0.581504 3.927735,-0.421875 z"
       id="path13767" />
    <path
       style="fill:none;stroke:#000000;stroke-width:0.264583px;stroke-linecap:butt;stroke-linejoin:miter;stroke-opacity:1"
       d="m 105.01396,66.071472 c 0,0 0.85721,3.938362 -1.90612,6.813581 -1.84029,1.91481 -2.85196,2.283882 -7.768268,2.467669 -4.916305,0.183788 -5.111952,0.310595 -7.07254,-0.580585 -1.010827,-0.459468 -1.455816,-5.198221 -1.654084,-8.178528 -0.283564,-4.262462 -0.413487,-7.139825 -1.06004,-11.135844 -0.452508,-2.796722 -0.689203,-7.71906 -0.689203,-7.71906 0,0 0.146303,-2.912303 2.618967,-3.629795 0.916316,-0.265887 1.999388,-0.288834 3.128196,0.09517 1.537747,0.523124 3.27035,1.253723 4.058536,1.818825 2.164375,1.551782 3.599445,2.399464 6.154566,7.334762 2.45168,4.735513 3.09907,6.619775 3.74072,9.026354 0.44684,1.675914 0.44927,3.687451 0.44927,3.687451 z"
       id="path13769"
       sodipodi:nodetypes="cssssscsssssc" />
    <path
       style="fill:none;stroke:#000000;stroke-width:0.264583px;stroke-linecap:butt;stroke-linejoin:miter;stroke-opacity:1"
       d="m 62.339591,75.560158 c 0,0 2.443063,1.803471 6.578273,1.803471 2.154204,0 4.486746,0.01522 6.702946,-0.106935 1.854103,-0.102194 3.177125,-0.554147 3.91307,-1.260717 1.54182,-1.480279 1.791923,-1.837872 1.883818,-7.30554 0.09189,-5.467665 0.09189,-9.097462 -0.551363,-12.451577 C 80.22308,52.884745 78.79873,47.600865 77.971688,46.130567 77.144648,44.660273 76.731125,44.38459 76.731125,44.38459 L 65.933633,42.54672 c 0,0 -3.032488,3.078435 -4.227105,9.327198 -1.194618,6.248759 -2.081024,14.261059 -1.70003,17.965189 0.413519,4.020344 2.333093,5.721051 2.333093,5.721051 z"
       id="path13771"
       sodipodi:nodetypes="cssssssccssc" />
    <path
       style="fill:none;stroke:#000000;stroke-width:0.264583px;stroke-linecap:butt;stroke-linejoin:miter;stroke-opacity:1"
       d="m 34.781713,55.779392 c 0,0 -1.672079,4.268609 -2.205445,6.110923 -0.665134,2.297458 -1.14867,6.386602 -1.14867,6.386602 0,0 -0.390551,4.27305 0.551363,7.673113 0.621855,2.244735 1.194615,2.664912 1.194615,2.664912"
       id="path13773"
       sodipodi:nodetypes="cscsc" />
    <path
       style="fill:none;stroke:#000000;stroke-width:0.264583px;stroke-linecap:butt;stroke-linejoin:miter;stroke-opacity:1"
       d="m 40.96358,83.203693 c -0.06181,-0.01397 2.121399,0.768801 3.489931,1.053188 0,0 0.582065,0.215412 5.812267,0.859532 4.78365,0.589125 7.522547,0.510079 7.787166,0.37777 v 0 0"
       id="path13775"
       sodipodi:nodetypes="ccsccc" />
    <path
       style="fill:none;stroke:#000000;stroke-width:0.264583px;stroke-linecap:butt;stroke-linejoin:miter;stroke-opacity:1"
       d="m 87.195827,85.364225 c 0,0 1.900616,0.16247 7.115146,-0.714743 5.214526,-0.87721 8.414717,-2.014331 9.096997,-2.258005 0.68229,-0.24367 0.68229,-0.24367 0.68229,-0.24367"
       id="path13777" />
    <path
       style="fill:none;stroke:#000000;stroke-width:0.264583px;stroke-linecap:butt;stroke-linejoin:miter;stroke-opacity:1"
       d="m 109.98705,66.812868 c 0.17579,2.01808 0.23949,3.19395 0.1787,5.831826 0,0 -0.17429,2.350778 -0.3249,2.97277 -0.46543,1.922101 -0.42881,1.818325 -0.42236,1.8194 h -0.0162"
       id="path13779"
       sodipodi:nodetypes="ccscc" />
    <path
       style="fill:none;stroke:#000000;stroke-width:0.264583px;stroke-linecap:butt;stroke-linejoin:miter;stroke-opacity:1"
       d="M 98.014719,16.649418 80.47054,23.439676 78.228778,23.407188 48.403619,17.884011 v 0 0"
       id="path13781" />
    <path
       style="fill:none;stroke:#000000;stroke-width:0.264583px;stroke-linecap:butt;stroke-linejoin:miter;stroke-opacity:1"
       d="m 49.670701,8.6570552 12.638331,1.7869098 8.869571,1.397039 6.887729,1.072146 1.591974,0.45485 c 0,0 1.267081,1.169615 1.234593,3.703777 -0.03249,2.534166 -0.45485,5.295755 -1.429528,5.100818 -0.97468,-0.194935 -6.595324,-0.974678 -6.595324,-0.974678 L 66.922508,20.12577 59.70989,18.793709 48.988425,16.844355"
       id="path13783" />
    <path
       style="fill:none;stroke:#000000;stroke-width:0.264583px;stroke-linecap:butt;stroke-linejoin:miter;stroke-opacity:1"
       d="m 81.440671,22.100403 8.109606,-3.239249 c 0,0 0.344602,-0.528388 0.390549,-2.57302 0.04595,-2.044632 -0.620281,-5.306853 -1.171644,-5.605508 -0.551362,-0.298654 -7.856899,2.182473 -7.856899,2.182473 0,0 1.28651,1.171643 1.217588,3.514928 -0.06892,2.343287 -0.13784,4.548732 -0.758121,5.214961 -0.620281,0.666229 0.06892,0.505415 0.06892,0.505415 z"
       id="path13785" />
    <path
       style="fill:none;stroke:#000000;stroke-width:0.264583px;stroke-linecap:butt;stroke-linejoin:miter;stroke-opacity:1"
       d="M 103.47215,19.596302 80.47054,23.439676"
       id="path13787" />
    <path
       style="fill:none;stroke:#000000;stroke-width:0.264583px;stroke-linecap:butt;stroke-linejoin:miter;stroke-opacity:1"
       d="m 103.31051,27.630795 -30.94433,5.657649 0.321628,-8.775837 7.782732,-1.072931"
       id="path13789" />
    <path
       style="fill:none;stroke:#000000;stroke-width:0.264583px;stroke-linecap:butt;stroke-linejoin:miter;stroke-opacity:1"
       d="M 72.36618,33.288444 50.320486,24.739247 c 0,0 -0.129959,0.682277 -0.06498,-1.884377 0.06498,-2.566654 -0.584806,-4.418541 0.357383,-4.516008 0.942189,-0.09747 8.674637,1.559483 8.674637,1.559483 l 13.400281,4.614262"
       id="path13791"
       sodipodi:nodetypes="ccsscc" />
    <path
       style="fill:none;stroke:#000000;stroke-width:0.264583px;stroke-linecap:butt;stroke-linejoin:miter;stroke-opacity:1"
       d="M 52.724694,27.143457 71.990837,34.5835 74.07015,34.48603 102.49827,29.06032"
       id="path13793" />
    <path
       style="fill:none;stroke:#000000;stroke-width:0.264583px;stroke-linecap:butt;stroke-linejoin:miter;stroke-opacity:1"
       d="M 93.823642,39.229467 80.275602,44.525221 76.731125,44.38459"
       id="path13795" />
    <path
       style="fill:none;stroke:#000000;stroke-width:0.264583px;stroke-linecap:butt;stroke-linejoin:miter;stroke-opacity:1"
       d="M 65.933633,42.54672 48.143703,39.359425"
       id="path13797" />
    <path
       style="fill:none;stroke:#000000;stroke-width:0.264583px;stroke-linecap:butt;stroke-linejoin:miter;stroke-opacity:1"
       d="M 48.403619,37.605005 78.982518,42.8224 c 0,0 1.194617,-0.597307 1.194617,-2.756807 0,-2.159498 -0.239183,-4.458869 -1.364467,-5.510826 -0.804272,-0.751863 -3.126418,-0.207707 -2.044632,-0.59731"
       id="path13799"
       sodipodi:nodetypes="ccssc" />
    <path
       style="fill:none;stroke:#000000;stroke-width:0.264583px;stroke-linecap:butt;stroke-linejoin:miter;stroke-opacity:1"
       d="m 48.533575,29.67762 18.258977,2.891546"
       id="path13801" />
    <path
       style="fill:none;stroke:#000000;stroke-width:0.264583px;stroke-linecap:butt;stroke-linejoin:miter;stroke-opacity:1"
       d="m 80.308093,34.291098 7.472535,-2.371719 c 0,0 1.526995,1.754423 1.33206,4.353565 -0.194937,2.599142 -0.552317,4.321074 -0.552317,4.321074 l -8.187301,2.924035 c 0,0 1.234593,-2.176782 1.267084,-4.093649 0.03249,-1.916869 -0.51983,-3.768757 -0.97468,-4.353565 -0.454851,-0.584806 -0.357381,-0.779741 -0.357381,-0.779741 z"
       id="path13803" />
    <ellipse
       style="fill:#000000;stroke-width:0.264583"
       id="ellipse13805"
       cx="17.668758"
       cy="41.893589"
       rx="3.2489281"
       ry="3.1839495" />
    <path
       style="fill:#000000;fill-opacity:0;stroke-width:0.992383"
       d="m 167.7127,383.16458 c -4.63939,-0.37652 -9.3788,-1.20693 -10.53202,-1.84535 -8.89659,-4.92513 -13.11482,-18.73593 -10.69489,-35.01592 1.92685,-12.96283 6.64811,-30.73923 8.15759,-30.71483 0.36549,0.006 2.8974,0.70076 5.62645,1.54411 7.68646,2.37531 29.38227,5.37231 43.89365,6.06333 12.66547,0.60312 13.11376,0.69881 12.67661,2.70592 -0.24925,1.14438 -1.38696,8.77927 -2.52824,16.96643 -3.98561,28.5913 -6.20303,36.26772 -11.24447,38.92696 -3.53365,1.86391 -20.94938,2.53845 -35.35468,1.36935 z"
       id="path13807"
       transform="matrix(0.26458333,0,0,0.26458333,0.27916949,0.17169345)" />
  </g>
</svg>
